<svg width="225" height="60" viewBox="0 0 225 60" fill="none" xmlns="http://www.w3.org/2000/svg">
<path d="M12.177 31H4.305L10.209 14.805H6.847V14.764C6.87433 14.6547 7.06567 14.354 7.421 13.862C7.80367 13.37 8.241 12.8233 8.733 12.222C9.25233 11.6207 9.77167 11.0467 10.291 10.5C10.8377 9.926 11.3023 9.516 11.685 9.27H20.09L12.177 31ZM46.01 19.233C45.8187 20.545 45.313 21.898 44.493 23.292C43.673 24.686 42.648 25.957 41.418 27.105C40.2153 28.253 38.8487 29.196 37.318 29.934C35.7873 30.6447 34.202 31 32.562 31H28.462C26.9587 31 25.5647 30.877 24.28 30.631C22.9953 30.385 21.8883 29.975 20.959 29.401C20.0297 28.7997 19.2917 27.9933 18.745 26.982C18.2257 25.9707 17.966 24.6997 17.966 23.169C17.966 22.841 17.9797 22.4993 18.007 22.144C18.0343 21.7887 18.0753 21.4197 18.13 21.037C18.3213 19.725 18.8133 18.372 19.606 16.978C20.3987 15.584 21.3827 14.313 22.558 13.165C23.7333 12.017 25.0317 11.0877 26.453 10.377C27.8743 9.639 29.3093 9.27 30.758 9.27H36.17C37.646 9.27 38.999 9.42033 40.229 9.721C41.459 9.99433 42.5113 10.4453 43.386 11.074C44.288 11.6753 44.985 12.468 45.477 13.452C45.969 14.436 46.215 15.6113 46.215 16.978C46.215 17.3333 46.1877 17.7023 46.133 18.085C46.1057 18.4403 46.0647 18.823 46.01 19.233ZM25.838 20.463C25.8107 20.4903 25.797 20.586 25.797 20.75V20.996C25.797 21.488 25.8927 22.0073 26.084 22.554C26.2753 23.0733 26.535 23.5517 26.863 23.989C27.191 24.4263 27.5737 24.7817 28.011 25.055C28.4483 25.3283 28.913 25.465 29.405 25.465H32.111C32.439 25.465 32.849 25.3557 33.341 25.137C33.8603 24.891 34.3797 24.5767 34.899 24.194C35.4457 23.8113 35.9513 23.3877 36.416 22.923C36.908 22.431 37.277 21.9527 37.523 21.488C37.769 21.1053 37.9193 20.8047 37.974 20.586L38.138 20.176C38.2473 19.6293 38.302 19.0417 38.302 18.413C38.302 17.9757 38.261 17.5383 38.179 17.101C38.097 16.6637 37.933 16.281 37.687 15.953C37.441 15.5977 37.0993 15.3243 36.662 15.133C36.252 14.9143 35.7053 14.805 35.022 14.805H31.701C31.2637 14.805 30.7853 14.928 30.266 15.174C29.774 15.3927 29.282 15.6933 28.79 16.076C28.298 16.4587 27.8333 16.896 27.396 17.388C26.986 17.8527 26.658 18.3173 26.412 18.782C26.2753 19.11 26.1523 19.4243 26.043 19.725C25.9337 19.9983 25.8653 20.2443 25.838 20.463ZM75.5588 19.233C75.3675 20.545 74.8618 21.898 74.0418 23.292C73.2218 24.686 72.1968 25.957 70.9668 27.105C69.7642 28.253 68.3975 29.196 66.8668 29.934C65.3362 30.6447 63.7508 31 62.1108 31H58.0108C56.5075 31 55.1135 30.877 53.8288 30.631C52.5442 30.385 51.4372 29.975 50.5078 29.401C49.5785 28.7997 48.8405 27.9933 48.2938 26.982C47.7745 25.9707 47.5148 24.6997 47.5148 23.169C47.5148 22.841 47.5285 22.4993 47.5558 22.144C47.5832 21.7887 47.6242 21.4197 47.6788 21.037C47.8702 19.725 48.3622 18.372 49.1548 16.978C49.9475 15.584 50.9315 14.313 52.1068 13.165C53.2822 12.017 54.5805 11.0877 56.0018 10.377C57.4232 9.639 58.8582 9.27 60.3068 9.27H65.7188C67.1948 9.27 68.5478 9.42033 69.7778 9.721C71.0078 9.99433 72.0602 10.4453 72.9348 11.074C73.8368 11.6753 74.5338 12.468 75.0258 13.452C75.5178 14.436 75.7638 15.6113 75.7638 16.978C75.7638 17.3333 75.7365 17.7023 75.6818 18.085C75.6545 18.4403 75.6135 18.823 75.5588 19.233ZM55.3868 20.463C55.3595 20.4903 55.3458 20.586 55.3458 20.75V20.996C55.3458 21.488 55.4415 22.0073 55.6328 22.554C55.8242 23.0733 56.0838 23.5517 56.4118 23.989C56.7398 24.4263 57.1225 24.7817 57.5598 25.055C57.9972 25.3283 58.4618 25.465 58.9538 25.465H61.6598C61.9878 25.465 62.3978 25.3557 62.8898 25.137C63.4092 24.891 63.9285 24.5767 64.4478 24.194C64.9945 23.8113 65.5002 23.3877 65.9648 22.923C66.4568 22.431 66.8258 21.9527 67.0718 21.488C67.3178 21.1053 67.4682 20.8047 67.5228 20.586L67.6868 20.176C67.7962 19.6293 67.8508 19.0417 67.8508 18.413C67.8508 17.9757 67.8098 17.5383 67.7278 17.101C67.6458 16.6637 67.4818 16.281 67.2358 15.953C66.9898 15.5977 66.6482 15.3243 66.2108 15.133C65.8008 14.9143 65.2542 14.805 64.5708 14.805H61.2498C60.8125 14.805 60.3342 14.928 59.8148 15.174C59.3228 15.3927 58.8308 15.6933 58.3388 16.076C57.8468 16.4587 57.3822 16.896 56.9448 17.388C56.5348 17.8527 56.2068 18.3173 55.9608 18.782C55.8242 19.11 55.7012 19.4243 55.5918 19.725C55.4825 19.9983 55.4142 20.2443 55.3868 20.463ZM75.9157 31L102.197 9.27H109.29L82.9267 31H75.9157ZM93.3817 14.272C93.3817 14.2993 93.368 14.354 93.3407 14.436C93.3407 14.518 93.327 14.6273 93.2997 14.764L93.1357 15.215C92.917 15.8163 92.589 16.4177 92.1517 17.019C91.7143 17.593 91.2087 18.1123 90.6347 18.577C90.0607 19.0417 89.432 19.4243 88.7487 19.725C88.0653 19.9983 87.3683 20.135 86.6577 20.135H84.6077C83.7877 20.135 83.0223 20.0667 82.3117 19.93C81.6283 19.766 81.0407 19.5063 80.5487 19.151C80.084 18.7683 79.7423 18.2627 79.5237 17.634C79.3323 16.978 79.305 16.158 79.4417 15.174C79.469 14.846 79.551 14.518 79.6877 14.19C79.9063 13.5887 80.2207 13.001 80.6307 12.427C81.068 11.8257 81.56 11.2927 82.1067 10.828C82.6807 10.3633 83.282 9.99433 83.9107 9.721C84.5393 9.42033 85.168 9.27 85.7967 9.27H88.5027C89.3227 9.27 90.0743 9.36567 90.7577 9.557C91.441 9.721 92.0013 10.008 92.4387 10.418C92.876 10.828 93.1767 11.3473 93.3407 11.976C93.532 12.6047 93.5457 13.37 93.3817 14.272ZM83.9517 14.723C83.8697 15.133 83.979 15.5703 84.2797 16.035C84.5803 16.4723 84.922 16.691 85.3047 16.691H86.3707C86.48 16.691 86.6303 16.65 86.8217 16.568C87.013 16.4587 87.2043 16.3357 87.3957 16.199C87.6143 16.0623 87.8193 15.8983 88.0107 15.707C88.202 15.5157 88.3523 15.3243 88.4617 15.133C88.489 15.0783 88.5163 15.0237 88.5437 14.969C88.571 14.9143 88.5983 14.846 88.6257 14.764L88.7487 14.477C88.776 14.4497 88.7897 14.2447 88.7897 13.862C88.7897 13.4793 88.694 13.165 88.5027 12.919C88.3113 12.6457 87.9697 12.509 87.4777 12.509H86.2477C85.8923 12.509 85.5097 12.673 85.0997 13.001C84.717 13.329 84.4163 13.6843 84.1977 14.067L83.9517 14.723ZM105.846 25.137C105.846 25.1643 105.832 25.219 105.805 25.301C105.805 25.383 105.791 25.4923 105.764 25.629L105.6 26.08C105.381 26.6813 105.053 27.2827 104.616 27.884C104.178 28.458 103.673 28.9773 103.099 29.442C102.525 29.9067 101.896 30.2893 101.213 30.59C100.529 30.8633 99.8323 31 99.1217 31H97.0717C96.2517 31 95.4863 30.9317 94.7757 30.795C94.0923 30.631 93.5047 30.3713 93.0127 30.016C92.548 29.6333 92.2063 29.1277 91.9877 28.499C91.7963 27.843 91.769 27.023 91.9057 26.039C91.933 25.711 92.015 25.383 92.1517 25.055C92.3703 24.4537 92.6847 23.866 93.0947 23.292C93.532 22.6907 94.024 22.1577 94.5707 21.693C95.1173 21.2283 95.705 20.8593 96.3337 20.586C96.9623 20.2853 97.591 20.135 98.2197 20.135H100.926C102.593 20.135 103.905 20.5177 104.862 21.283C105.818 22.0483 106.146 23.333 105.846 25.137ZM96.4157 25.588C96.3337 25.998 96.443 26.4353 96.7437 26.9C97.0443 27.3373 97.386 27.556 97.7687 27.556H98.8347C99.0807 27.556 99.4223 27.392 99.8597 27.064C100.324 26.736 100.666 26.3807 100.885 25.998C100.994 25.8887 101.062 25.7657 101.09 25.629L101.172 25.342C101.199 25.3147 101.213 25.1097 101.213 24.727C101.213 24.3443 101.131 24.03 100.967 23.784C100.803 23.5107 100.461 23.374 99.9417 23.374H98.7117C98.3563 23.374 97.9737 23.538 97.5637 23.866C97.181 24.194 96.8803 24.5493 96.6617 24.932L96.4157 25.588ZM125.254 9.27H148.624C148.433 9.65267 148.105 10.1583 147.64 10.787C147.203 11.3883 146.725 11.9897 146.205 12.591C145.713 13.1923 145.221 13.7117 144.729 14.149C144.265 14.5863 143.923 14.805 143.704 14.805H131.076L128.739 21.242L132.634 17.47H142.105L136.242 23.005H128.083L125.172 31H117.341L125.254 9.27ZM166.75 31H159.452L158.591 26.367C158.537 26.531 158.332 26.8453 157.976 27.31C157.648 27.7747 157.266 28.2667 156.828 28.786C156.418 29.3053 156.008 29.7837 155.598 30.221C155.188 30.6583 154.888 30.918 154.696 31H137.353C137.381 30.8633 137.394 30.7677 137.394 30.713C137.422 30.6583 137.435 30.6583 137.435 30.713V30.59L152.195 11.73C152.277 11.566 152.441 11.3473 152.687 11.074C152.933 10.8007 153.193 10.541 153.466 10.295C153.767 10.0217 154.054 9.78933 154.327 9.598C154.628 9.37933 154.874 9.27 155.065 9.27H161.953C162.227 9.27 162.473 9.42033 162.691 9.721C162.937 10.0217 163.142 10.3907 163.306 10.828C163.47 11.2653 163.607 11.73 163.716 12.222C163.853 12.6867 163.962 13.083 164.044 13.411L166.75 31ZM150.268 25.096V25.506H158.591L157.156 15.871L150.268 25.096ZM168.426 31V30.959C168.454 30.8497 168.645 30.549 169 30.057C169.383 29.565 169.82 29.0183 170.312 28.417C170.832 27.8157 171.351 27.2417 171.87 26.695C172.417 26.121 172.882 25.711 173.264 25.465H178.184L182.079 14.805H174.33V14.764C174.358 14.6547 174.549 14.354 174.904 13.862C175.287 13.37 175.724 12.8233 176.216 12.222C176.736 11.6207 177.255 11.0467 177.774 10.5C178.321 9.926 178.786 9.516 179.168 9.27H199.709C199.518 9.65267 199.19 10.1583 198.725 10.787C198.288 11.3883 197.81 11.9897 197.29 12.591C196.798 13.1923 196.306 13.7117 195.814 14.149C195.35 14.5863 195.008 14.805 194.789 14.805H189.951L186.056 25.465H193.805C193.614 25.8477 193.286 26.3533 192.821 26.982C192.384 27.5833 191.906 28.1847 191.386 28.786C190.894 29.3873 190.402 29.9067 189.91 30.344C189.446 30.7813 189.104 31 188.885 31H168.426ZM207.631 14.846L205.294 20.955L209.312 17.593H215.872C215.899 17.593 215.954 17.5383 216.036 17.429C216.145 17.2923 216.255 17.1557 216.364 17.019C216.501 16.855 216.61 16.7047 216.692 16.568C216.801 16.404 216.87 16.281 216.897 16.199L216.938 15.953C216.938 15.707 216.883 15.461 216.774 15.215C216.692 14.969 216.446 14.846 216.036 14.846H207.631ZM193.896 31L201.809 9.27H220.177C221.161 9.27 221.954 9.475 222.555 9.885C223.156 10.295 223.621 10.8143 223.949 11.443C224.277 12.0717 224.496 12.755 224.605 13.493C224.714 14.231 224.769 14.9143 224.769 15.543C224.769 16.937 224.427 18.1123 223.744 19.069C223.061 19.9983 222.2 20.75 221.161 21.324C220.122 21.898 218.974 22.3217 217.717 22.595C216.46 22.841 215.257 22.9777 214.109 23.005L222.145 31H213.371L204.925 23.21L204.474 23.538L201.768 31H193.896Z" fill="url(#paint0_radial_987_64)"/>
<path d="M17.2202 47.6982V48.5405C17.2202 49.8914 17.0371 51.104 16.6709 52.1782C16.3047 53.2524 15.7879 54.168 15.1206 54.9248C14.4533 55.6735 13.6558 56.2472 12.728 56.646C11.8084 57.0448 10.7871 57.2441 9.66406 57.2441C8.54915 57.2441 7.52783 57.0448 6.6001 56.646C5.6805 56.2472 4.88298 55.6735 4.20752 54.9248C3.53206 54.168 3.00716 53.2524 2.63281 52.1782C2.2666 51.104 2.0835 49.8914 2.0835 48.5405V47.6982C2.0835 46.3392 2.2666 45.1266 2.63281 44.0605C2.99902 42.9863 3.51579 42.0708 4.18311 41.314C4.85856 40.5571 5.65609 39.9793 6.57568 39.5806C7.50342 39.1818 8.52474 38.9824 9.63965 38.9824C10.7627 38.9824 11.784 39.1818 12.7036 39.5806C13.6313 39.9793 14.4289 40.5571 15.0962 41.314C15.7716 42.0708 16.2925 42.9863 16.6587 44.0605C17.033 45.1266 17.2202 46.3392 17.2202 47.6982ZM13.5215 48.5405V47.6738C13.5215 46.7298 13.436 45.8997 13.2651 45.1836C13.0942 44.4674 12.842 43.8652 12.5083 43.377C12.1746 42.8887 11.7677 42.5225 11.2876 42.2783C10.8075 42.026 10.2581 41.8999 9.63965 41.8999C9.02116 41.8999 8.47184 42.026 7.9917 42.2783C7.51969 42.5225 7.11686 42.8887 6.7832 43.377C6.45768 43.8652 6.20947 44.4674 6.03857 45.1836C5.86768 45.8997 5.78223 46.7298 5.78223 47.6738V48.5405C5.78223 49.4764 5.86768 50.3065 6.03857 51.0308C6.20947 51.7469 6.46175 52.3532 6.79541 52.8496C7.12907 53.3379 7.53597 53.7082 8.01611 53.9604C8.49626 54.2127 9.04557 54.3389 9.66406 54.3389C10.2826 54.3389 10.8319 54.2127 11.312 53.9604C11.7922 53.7082 12.195 53.3379 12.5205 52.8496C12.846 52.3532 13.0942 51.7469 13.2651 51.0308C13.436 50.3065 13.5215 49.4764 13.5215 48.5405ZM35.0723 39.2266V57H31.4102L24.269 45.0859V57H20.6069V39.2266H24.269L31.4224 51.1528V39.2266H35.0723ZM45.7222 47.9912V50.75H38.8252V47.9912H45.7222ZM59.9243 51.104H63.5742C63.501 52.3003 63.1714 53.3623 62.5854 54.29C62.0076 55.2178 61.1979 55.9421 60.1562 56.4629C59.1227 56.9837 57.8776 57.2441 56.4209 57.2441C55.2816 57.2441 54.2603 57.0488 53.3569 56.6582C52.4536 56.2594 51.6805 55.6898 51.0376 54.9492C50.4028 54.2087 49.9186 53.3135 49.585 52.2637C49.2513 51.2139 49.0845 50.0379 49.0845 48.7358V47.5029C49.0845 46.2008 49.2554 45.0249 49.5972 43.9751C49.9471 42.9172 50.4435 42.0179 51.0864 41.2773C51.7375 40.5368 52.5146 39.9671 53.418 39.5684C54.3213 39.1696 55.3304 38.9702 56.4453 38.9702C57.9264 38.9702 59.1756 39.2388 60.1929 39.7759C61.2183 40.313 62.0117 41.0535 62.5732 41.9976C63.1429 42.9416 63.4847 44.0158 63.5986 45.2202H59.9365C59.8958 44.5041 59.7534 43.8978 59.5093 43.4014C59.2651 42.8968 58.8949 42.5184 58.3984 42.2661C57.9102 42.0057 57.2591 41.8755 56.4453 41.8755C55.835 41.8755 55.3019 41.9894 54.8462 42.2173C54.3905 42.4451 54.008 42.791 53.6987 43.2549C53.3895 43.7188 53.1576 44.3047 53.0029 45.0127C52.8564 45.7126 52.7832 46.5345 52.7832 47.4785V48.7358C52.7832 49.6554 52.8524 50.4652 52.9907 51.165C53.1291 51.8568 53.3407 52.4427 53.6255 52.9229C53.9185 53.3949 54.2928 53.7529 54.7485 53.9971C55.2124 54.2331 55.7699 54.3511 56.4209 54.3511C57.1859 54.3511 57.8166 54.229 58.313 53.9849C58.8094 53.7407 59.1878 53.3786 59.4482 52.8984C59.7168 52.4183 59.8755 51.8201 59.9243 51.104ZM78.582 46.4653V49.3218H69.3047V46.4653H78.582ZM70.3911 39.2266V57H66.729V39.2266H70.3911ZM81.1943 39.2266V57H77.5444V39.2266H81.1943ZM92.5767 42.2661L87.7427 57H83.8486L90.4526 39.2266H92.9307L92.5767 42.2661ZM96.5928 57L91.7466 42.2661L91.356 39.2266H93.8584L100.499 57H96.5928ZM96.373 50.3838V53.2524H86.9858V50.3838H96.373ZM106.791 39.2266V57H103.141V39.2266H106.791ZM125.437 39.2266V57H121.774L114.633 45.0859V57H110.971V39.2266H114.633L121.787 51.1528V39.2266H125.437ZM150.435 47.7104V54.7539C150.158 55.0876 149.731 55.4497 149.153 55.8403C148.576 56.2228 147.831 56.5524 146.919 56.8291C146.008 57.1058 144.905 57.2441 143.611 57.2441C142.464 57.2441 141.418 57.057 140.474 56.6826C139.53 56.3001 138.716 55.7427 138.033 55.0103C137.357 54.2778 136.836 53.3826 136.47 52.3247C136.104 51.2586 135.921 50.042 135.921 48.6748V47.564C135.921 46.1968 136.096 44.9801 136.446 43.9141C136.804 42.848 137.312 41.9487 137.972 41.2163C138.631 40.4839 139.416 39.9264 140.328 39.5439C141.239 39.1615 142.252 38.9702 143.367 38.9702C144.913 38.9702 146.183 39.2225 147.176 39.7271C148.169 40.2235 148.925 40.9152 149.446 41.8022C149.975 42.6812 150.301 43.6903 150.423 44.8296H146.871C146.781 44.2274 146.61 43.7025 146.358 43.2549C146.106 42.8073 145.743 42.4574 145.271 42.2051C144.808 41.9528 144.205 41.8267 143.465 41.8267C142.854 41.8267 142.309 41.9528 141.829 42.2051C141.357 42.4492 140.958 42.8114 140.633 43.2915C140.307 43.7716 140.059 44.3657 139.888 45.0737C139.717 45.7817 139.632 46.6037 139.632 47.5396V48.6748C139.632 49.6025 139.721 50.4245 139.9 51.1406C140.079 51.8486 140.344 52.4468 140.694 52.9351C141.052 53.4152 141.491 53.7773 142.012 54.0215C142.533 54.2656 143.139 54.3877 143.831 54.3877C144.409 54.3877 144.889 54.3389 145.271 54.2412C145.662 54.1436 145.975 54.0256 146.211 53.8872C146.456 53.7407 146.643 53.6024 146.773 53.4722V50.3228H143.428V47.7104H150.435ZM161.366 42.2661L156.532 57H152.638L159.242 39.2266H161.72L161.366 42.2661ZM165.382 57L160.536 42.2661L160.145 39.2266H162.647L169.288 57H165.382ZM165.162 50.3838V53.2524H155.775V50.3838H165.162ZM173.358 39.2266H176.459L181.024 52.2759L185.59 39.2266H188.69L182.27 57H179.779L173.358 39.2266ZM171.686 39.2266H174.774L175.336 51.9463V57H171.686V39.2266ZM187.274 39.2266H190.375V57H186.713V51.9463L187.274 39.2266ZM206.262 54.1436V57H196.801V54.1436H206.262ZM197.998 39.2266V57H194.335V39.2266H197.998ZM205.029 46.4653V49.2485H196.801V46.4653H205.029ZM206.25 39.2266V42.0952H196.801V39.2266H206.25ZM218.401 52.3491C218.401 52.0317 218.352 51.7469 218.254 51.4946C218.165 51.2342 217.994 50.9982 217.742 50.7866C217.489 50.5669 217.135 50.3512 216.68 50.1396C216.224 49.9281 215.634 49.7083 214.91 49.4805C214.104 49.2201 213.339 48.9271 212.615 48.6016C211.899 48.276 211.264 47.8976 210.71 47.4663C210.165 47.0269 209.734 46.5182 209.417 45.9404C209.107 45.3626 208.953 44.6912 208.953 43.9263C208.953 43.1857 209.115 42.5143 209.441 41.9121C209.766 41.3018 210.222 40.7809 210.808 40.3496C211.394 39.9102 212.086 39.5724 212.883 39.3364C213.689 39.1004 214.572 38.9824 215.532 38.9824C216.842 38.9824 217.986 39.2184 218.962 39.6904C219.939 40.1624 220.696 40.8094 221.233 41.6313C221.778 42.4533 222.051 43.3932 222.051 44.4512H218.413C218.413 43.9303 218.303 43.4746 218.083 43.084C217.872 42.6852 217.546 42.3719 217.107 42.144C216.676 41.9162 216.13 41.8022 215.471 41.8022C214.836 41.8022 214.307 41.8999 213.884 42.0952C213.461 42.2824 213.144 42.5387 212.932 42.8643C212.721 43.1816 212.615 43.5397 212.615 43.9385C212.615 44.2396 212.688 44.5122 212.834 44.7563C212.989 45.0005 213.217 45.2284 213.518 45.4399C213.819 45.6515 214.189 45.8509 214.629 46.0381C215.068 46.2253 215.577 46.4084 216.155 46.5874C217.123 46.8804 217.974 47.21 218.706 47.5762C219.447 47.9424 220.065 48.3534 220.562 48.8091C221.058 49.2648 221.432 49.7816 221.685 50.3594C221.937 50.9372 222.063 51.5923 222.063 52.3247C222.063 53.0978 221.912 53.7896 221.611 54.3999C221.31 55.0103 220.875 55.527 220.305 55.9502C219.736 56.3734 219.056 56.6948 218.267 56.9146C217.477 57.1343 216.594 57.2441 215.618 57.2441C214.739 57.2441 213.872 57.1302 213.018 56.9023C212.163 56.6663 211.386 56.3123 210.686 55.8403C209.994 55.3683 209.441 54.7661 209.026 54.0337C208.611 53.3013 208.403 52.4346 208.403 51.4336H212.078C212.078 51.987 212.163 52.4549 212.334 52.8374C212.505 53.2199 212.745 53.5291 213.054 53.7651C213.372 54.0011 213.746 54.172 214.177 54.2778C214.617 54.3836 215.097 54.4365 215.618 54.4365C216.252 54.4365 216.773 54.347 217.18 54.168C217.595 53.9889 217.9 53.7407 218.096 53.4233C218.299 53.106 218.401 52.7479 218.401 52.3491Z" fill="#DDE9F9"/>
<defs>
<radialGradient id="paint0_radial_987_64" cx="0" cy="0" r="1" gradientUnits="userSpaceOnUse" gradientTransform="translate(123.989 2.61515e-06) rotate(90) scale(43.875 123.989)">
<stop stop-color="#D787FF"/>
<stop offset="1" stop-color="#6741FF"/>
</radialGradient>
</defs>
</svg>
