<svg width="242" height="67" viewBox="0 0 242 67" fill="none" xmlns="http://www.w3.org/2000/svg">
<path d="M6.94189 27.364V27.26C6.94189 25.596 7.30589 23.88 8.03389 22.112C8.76189 20.344 9.74989 18.7493 10.9979 17.328C12.2459 15.9067 13.6846 14.7453 15.3139 13.844C16.9432 12.908 18.6766 12.44 20.5139 12.44H41.9899C40.9846 13.7573 39.9619 15.0053 38.9219 16.184C37.9166 17.328 36.8072 18.42 35.5939 19.46H22.0739C21.4499 19.46 20.8086 19.6853 20.1499 20.136C19.5259 20.552 18.9539 21.1067 18.4339 21.8C17.9139 22.4933 17.4806 23.2733 17.1339 24.14C16.7872 24.972 16.6139 25.804 16.6139 26.636C16.5792 28.5773 17.0126 30.12 17.9139 31.264C18.8152 32.408 20.2019 32.98 22.0739 32.98H34.5019C33.7046 34.1587 32.8032 35.372 31.7979 36.62C30.7926 37.8333 29.6312 38.96 28.3139 40H24.1539C22.0046 40 19.9072 39.8093 17.8619 39.428C15.8166 39.0467 13.9792 38.388 12.3499 37.452C10.7206 36.4813 9.40322 35.1813 8.39789 33.552C7.42722 31.9227 6.94189 29.86 6.94189 27.364ZM73.5409 25.076C73.2289 27.0173 72.5529 28.8893 71.5129 30.692C70.4729 32.4947 69.1902 34.0893 67.6649 35.476C66.1396 36.828 64.4062 37.92 62.4649 38.752C60.5582 39.584 58.5649 40 56.4849 40H50.4009C48.4942 40 46.7262 39.844 45.0969 39.532C43.4676 39.22 42.0636 38.7 40.8849 37.972C39.7062 37.2093 38.7702 36.1867 38.0769 34.904C37.4182 33.6213 37.0889 32.0093 37.0889 30.068C37.0889 29.652 37.1062 29.2187 37.1409 28.768C37.1756 28.3173 37.2276 27.8493 37.2969 27.364C37.5396 25.492 38.1636 23.672 39.1689 21.904C40.1742 20.1013 41.4222 18.5067 42.9129 17.12C44.4036 15.6987 46.0502 14.572 47.8529 13.74C49.6556 12.8733 51.4756 12.44 53.3129 12.44H61.0609C63.0369 12.44 64.8049 12.6307 66.3649 13.012C67.9249 13.3587 69.2596 13.9133 70.3689 14.676C71.4782 15.4387 72.3276 16.444 72.9169 17.692C73.5062 18.9053 73.8009 20.3613 73.8009 22.06C73.8009 22.5453 73.7836 23.0307 73.7489 23.516C73.7142 24.0013 73.6449 24.5213 73.5409 25.076ZM47.0729 26.636C46.9342 27.4333 46.9689 28.2133 47.1769 28.976C47.3849 29.7387 47.7142 30.4147 48.1649 31.004C48.6156 31.5933 49.1356 32.0787 49.7249 32.46C50.3489 32.8067 50.9729 32.98 51.5969 32.98H55.9129C56.7102 32.98 57.5596 32.6853 58.4609 32.096C59.3969 31.5067 60.2462 30.7787 61.0089 29.912C61.8062 29.0107 62.4649 28.04 62.9849 27C63.5049 25.96 63.7649 24.972 63.7649 24.036C63.7649 23.4813 63.7129 22.9267 63.6089 22.372C63.5049 21.8173 63.2969 21.332 62.9849 20.916C62.6729 20.4653 62.2396 20.1187 61.6849 19.876C61.1649 19.5987 60.4716 19.46 59.6049 19.46H54.5089C53.7809 19.46 53.0009 19.6853 52.1689 20.136C51.3716 20.5867 50.6089 21.1587 49.8809 21.852C49.1529 22.5453 48.5289 23.3253 48.0089 24.192C47.4889 25.024 47.1769 25.8387 47.0729 26.636ZM70.1455 40L80.1815 12.44H92.7655L95.7295 27.936L101.397 12.44H111.277L101.241 40H88.6575L85.7455 24.504L80.1295 40H70.1455ZM104.169 40L114.205 12.44H126.789L129.753 27.936L135.421 12.44H145.301L135.265 40H122.681L119.769 24.504L114.153 40H104.169ZM148.228 12.44H177.868C177.626 12.9253 177.21 13.5667 176.62 14.364C176.066 15.1267 175.459 15.8893 174.8 16.652C174.176 17.4147 173.552 18.0733 172.928 18.628C172.339 19.1827 171.906 19.46 171.628 19.46H155.612L152.648 27.624L157.588 22.84H169.6L162.164 29.86H151.816L150.672 32.98H170.588C170.554 33.0493 170.467 33.2053 170.328 33.448C170.19 33.656 170.051 33.8813 169.912 34.124C169.774 34.3667 169.635 34.592 169.496 34.8C169.358 35.008 169.271 35.1293 169.236 35.164C168.924 35.58 168.491 36.0653 167.936 36.62C167.416 37.1747 166.896 37.712 166.376 38.232C165.856 38.7173 165.388 39.1333 164.972 39.48C164.591 39.8267 164.383 40 164.348 40H138.192L148.228 12.44ZM175.84 27.364V27.26C175.84 25.596 176.204 23.88 176.932 22.112C177.66 20.344 178.648 18.7493 179.896 17.328C181.144 15.9067 182.583 14.7453 184.212 13.844C185.842 12.908 187.575 12.44 189.412 12.44H210.888C209.883 13.7573 208.86 15.0053 207.82 16.184C206.815 17.328 205.706 18.42 204.492 19.46H190.972C190.348 19.46 189.707 19.6853 189.048 20.136C188.424 20.552 187.852 21.1067 187.332 21.8C186.812 22.4933 186.379 23.2733 186.032 24.14C185.686 24.972 185.512 25.804 185.512 26.636C185.478 28.5773 185.911 30.12 186.812 31.264C187.714 32.408 189.1 32.98 190.972 32.98H203.4C202.603 34.1587 201.702 35.372 200.696 36.62C199.691 37.8333 198.53 38.96 197.212 40H193.052C190.903 40 188.806 39.8093 186.76 39.428C184.715 39.0467 182.878 38.388 181.248 37.452C179.619 36.4813 178.302 35.1813 177.296 33.552C176.326 31.9227 175.84 29.86 175.84 27.364ZM211.643 40L219.131 19.46H209.303V19.408C209.338 19.2693 209.58 18.888 210.031 18.264C210.516 17.64 211.071 16.9467 211.695 16.184C212.354 15.4213 213.012 14.6933 213.671 14C214.364 13.272 214.954 12.752 215.439 12.44H241.491C241.248 12.9253 240.832 13.5667 240.243 14.364C239.688 15.1267 239.082 15.8893 238.423 16.652C237.799 17.4147 237.175 18.0733 236.551 18.628C235.962 19.1827 235.528 19.46 235.251 19.46H229.115L221.627 40H211.643Z" fill="url(#paint0_radial_988_85)"/>
<path d="M12.7994 51.7414L8.77754 64H5.53769L11.0322 49.2125H13.0939L12.7994 51.7414ZM16.1408 64L12.1088 51.7414L11.7838 49.2125H13.8658L19.3908 64H16.1408ZM15.958 58.4953V60.882H8.14785V58.4953H15.958ZM33.4211 49.2125V64H30.3742L24.4328 54.0875V64H21.3859V49.2125H24.4328L30.3843 59.1352V49.2125H33.4211ZM38.4427 49.2125L41.5302 55.9563L44.6177 49.2125H47.9388L43.074 58.6172V64H39.9865V58.6172L35.1115 49.2125H38.4427ZM63.4157 60.1305C63.4157 59.8664 63.3751 59.6294 63.2938 59.4195C63.2194 59.2029 63.0772 59.0065 62.8673 58.8305C62.6574 58.6477 62.3629 58.4682 61.9837 58.2922C61.6045 58.1161 61.1136 57.9333 60.511 57.7438C59.8407 57.5271 59.2043 57.2833 58.6017 57.0125C58.0058 56.7417 57.4777 56.4268 57.0173 56.068C56.5636 55.7023 56.2048 55.2792 55.9407 54.7984C55.6834 54.3177 55.5548 53.7591 55.5548 53.1227C55.5548 52.5065 55.6902 51.9479 55.961 51.4469C56.2319 50.9391 56.611 50.5057 57.0985 50.1469C57.586 49.7813 58.1616 49.5003 58.8251 49.3039C59.4954 49.1076 60.23 49.0094 61.029 49.0094C62.1191 49.0094 63.0704 49.2057 63.8829 49.5984C64.6954 49.9911 65.3251 50.5294 65.772 51.2133C66.2256 51.8971 66.4524 52.6792 66.4524 53.5594H63.4259C63.4259 53.126 63.3345 52.7469 63.1517 52.4219C62.9756 52.0901 62.7048 51.8294 62.3392 51.6398C61.9803 51.4503 61.5267 51.3555 60.9782 51.3555C60.4501 51.3555 60.01 51.4367 59.6579 51.5992C59.3058 51.7549 59.0418 51.9682 58.8657 52.2391C58.6897 52.5031 58.6017 52.801 58.6017 53.1328C58.6017 53.3833 58.6626 53.6102 58.7845 53.8133C58.9131 54.0164 59.1027 54.206 59.3532 54.382C59.6037 54.5581 59.9118 54.724 60.2774 54.8797C60.6431 55.0354 61.0662 55.1878 61.547 55.3367C62.3527 55.5805 63.0603 55.8547 63.6696 56.1594C64.2858 56.4641 64.8004 56.806 65.2134 57.1852C65.6264 57.5643 65.9379 57.9943 66.1478 58.475C66.3576 58.9557 66.4626 59.5008 66.4626 60.1102C66.4626 60.7534 66.3373 61.3289 66.0868 61.8367C65.8363 62.3445 65.4741 62.7745 65.0001 63.1266C64.5261 63.4786 63.9608 63.7461 63.304 63.9289C62.6472 64.1117 61.9126 64.2031 61.1001 64.2031C60.3688 64.2031 59.6478 64.1083 58.9368 63.9188C58.2259 63.7224 57.5793 63.4279 56.997 63.0352C56.4215 62.6424 55.961 62.1414 55.6157 61.532C55.2704 60.9227 55.0978 60.2016 55.0978 59.3688H58.1548C58.1548 59.8292 58.2259 60.2185 58.3681 60.5367C58.5103 60.8549 58.71 61.1122 58.9673 61.3086C59.2313 61.5049 59.5428 61.6471 59.9017 61.7352C60.2673 61.8232 60.6668 61.8672 61.1001 61.8672C61.6282 61.8672 62.0616 61.7927 62.4001 61.6438C62.7454 61.4948 62.9993 61.2883 63.1618 61.0242C63.3311 60.7602 63.4157 60.4622 63.4157 60.1305ZM81.3053 56.2609V56.9617C81.3053 58.0857 81.153 59.0945 80.8483 59.9883C80.5436 60.882 80.1137 61.6438 79.5585 62.2734C79.0033 62.8964 78.3397 63.3737 77.5678 63.7055C76.8027 64.0372 75.953 64.2031 75.0186 64.2031C74.091 64.2031 73.2413 64.0372 72.4694 63.7055C71.7043 63.3737 71.0408 62.8964 70.4788 62.2734C69.9168 61.6438 69.4801 60.882 69.1686 59.9883C68.8639 59.0945 68.7116 58.0857 68.7116 56.9617V56.2609C68.7116 55.1302 68.8639 54.1214 69.1686 53.2344C69.4733 52.3406 69.9033 51.5789 70.4585 50.9492C71.0204 50.3195 71.684 49.8388 72.4491 49.507C73.221 49.1753 74.0707 49.0094 74.9983 49.0094C75.9327 49.0094 76.7824 49.1753 77.5475 49.507C78.3194 49.8388 78.9829 50.3195 79.5382 50.9492C80.1001 51.5789 80.5335 52.3406 80.8382 53.2344C81.1496 54.1214 81.3053 55.1302 81.3053 56.2609ZM78.228 56.9617V56.2406C78.228 55.4552 78.1569 54.7646 78.0147 54.1688C77.8725 53.5729 77.6626 53.0719 77.385 52.6656C77.1074 52.2594 76.7689 51.9547 76.3694 51.7516C75.9699 51.5417 75.5129 51.4367 74.9983 51.4367C74.4837 51.4367 74.0267 51.5417 73.6272 51.7516C73.2345 51.9547 72.8994 52.2594 72.6218 52.6656C72.3509 53.0719 72.1444 53.5729 72.0022 54.1688C71.86 54.7646 71.7889 55.4552 71.7889 56.2406V56.9617C71.7889 57.7404 71.86 58.431 72.0022 59.0336C72.1444 59.6294 72.3543 60.1339 72.6319 60.5469C72.9095 60.9531 73.2481 61.2612 73.6475 61.4711C74.047 61.681 74.504 61.7859 75.0186 61.7859C75.5332 61.7859 75.9902 61.681 76.3897 61.4711C76.7892 61.2612 77.1244 60.9531 77.3952 60.5469C77.666 60.1339 77.8725 59.6294 78.0147 59.0336C78.1569 58.431 78.228 57.7404 78.228 56.9617ZM93.6293 61.6234V64H86.1848V61.6234H93.6293ZM87.17 49.2125V64H84.1231V49.2125H87.17ZM102.216 51.7414L98.194 64H94.9541L100.449 49.2125H102.51L102.216 51.7414ZM105.557 64L101.525 51.7414L101.2 49.2125H103.282L108.807 64H105.557ZM105.374 58.4953V60.882H97.5643V58.4953H105.374ZM122.838 49.2125V64H119.791L113.849 54.0875V64H110.802V49.2125H113.849L119.801 59.1352V49.2125H122.838ZM132.308 51.7414L128.286 64H125.046L130.54 49.2125H132.602L132.308 51.7414ZM135.649 64L131.617 51.7414L131.292 49.2125H133.374L138.899 64H135.649ZM135.466 58.4953V60.882H127.656V58.4953H135.466ZM150.263 61.6539L153.208 49.2125H154.853L155.229 51.2844L152.091 64H150.324L150.263 61.6539ZM148.749 49.2125L151.187 61.6539L150.984 64H149.013L145.733 49.2125H148.749ZM157.819 61.6031L160.226 49.2125H163.242L159.972 64H158.002L157.819 61.6031ZM155.777 49.2125L158.743 61.7047L158.662 64H156.895L153.736 51.2742L154.142 49.2125H155.777ZM171.087 51.7414L167.066 64H163.826L169.32 49.2125H171.382L171.087 51.7414ZM174.429 64L170.397 51.7414L170.072 49.2125H172.154L177.679 64H174.429ZM174.246 58.4953V60.882H166.436V58.4953H174.246ZM189.18 61.6234V64H181.736V61.6234H189.18ZM182.721 49.2125V64H179.674V49.2125H182.721ZM201.057 61.6234V64H193.613V61.6234H201.057ZM194.598 49.2125V64H191.551V49.2125H194.598ZM213.351 61.6234V64H205.48V61.6234H213.351ZM206.475 49.2125V64H203.428V49.2125H206.475ZM212.325 55.2352V57.5508H205.48V55.2352H212.325ZM213.341 49.2125V51.5992H205.48V49.2125H213.341ZM222.567 49.2125V64H219.53V49.2125H222.567ZM227.117 49.2125V51.5992H215.051V49.2125H227.117Z" fill="#DDE9F9"/>
<defs>
<radialGradient id="paint0_radial_988_85" cx="0" cy="0" r="1" gradientUnits="userSpaceOnUse" gradientTransform="translate(130.133 3.28571e-06) rotate(90) scale(55.125 130.133)">
<stop stop-color="#D787FF"/>
<stop offset="1" stop-color="#6741FF"/>
</radialGradient>
</defs>
</svg>
