<svg width="260" height="50" viewBox="0 0 260 50" fill="none" xmlns="http://www.w3.org/2000/svg">
<path d="M45.1447 10.6501C44.1333 12.247 43.0849 13.6105 41.9994 14.7406C40.9387 15.8461 39.7792 16.7551 38.5211 17.4676C37.263 18.1801 35.8692 18.7083 34.3397 19.0522C32.8102 19.3716 31.0834 19.5313 29.1592 19.5313H19.9453L27.087 0H43.1835C44.6637 0 45.7368 0.405366 46.4029 1.2161C47.0689 2.02683 47.402 3.05867 47.402 4.31162C47.402 5.26976 47.2169 6.31389 46.8469 7.444C46.4769 8.54954 45.9095 9.61824 45.1447 10.6501ZM32.4525 4.97495L28.9372 14.5563H29.8993C30.4913 14.5563 31.1821 14.4335 31.9715 14.1878C32.7609 13.9176 33.5503 13.5736 34.3397 13.156C35.1291 12.7383 35.8568 12.2715 36.5229 11.7556C37.189 11.2151 37.6947 10.6746 38.0401 10.1342C38.1634 9.93762 38.3237 9.71651 38.5211 9.47083C38.7185 9.22515 38.8788 8.94263 39.0021 8.62325C39.1502 8.23016 39.2982 7.84937 39.4462 7.48085C39.6189 7.11234 39.7052 6.76839 39.7052 6.44901C39.7052 6.03136 39.6065 5.68741 39.4092 5.41717C39.2365 5.12236 38.9158 4.97495 38.4471 4.97495H32.4525Z" fill="#DDE9F9"/>
<path d="M68.1517 19.5313H61.5651L60.788 15.3671C60.7387 15.5145 60.5536 15.797 60.2329 16.2147C59.9369 16.6323 59.5915 17.0745 59.1968 17.5413C58.8268 18.0081 58.4568 18.438 58.0867 18.8311C57.7167 19.2242 57.4453 19.4576 57.2727 19.5313H41.6201C41.6695 19.3347 41.6942 19.2488 41.6942 19.2733V19.1628L55.0154 2.21109C55.0894 2.06368 55.2375 1.86714 55.4595 1.62147C55.6815 1.37579 55.9159 1.1424 56.1625 0.921288C56.4339 0.675611 56.6929 0.466785 56.9396 0.294812C57.211 0.0982708 57.433 0 57.6057 0H63.8223C64.069 0 64.291 0.135122 64.4883 0.405365C64.7104 0.675611 64.8954 1.00727 65.0434 1.40036C65.1914 1.79344 65.3148 2.21109 65.4134 2.65331C65.5368 3.07096 65.6355 3.42719 65.7095 3.722L68.1517 19.5313ZM53.2763 14.2247V14.5932H60.788L59.4929 5.93309L53.2763 14.2247Z" fill="#DDE9F9"/>
<path d="M69.6645 19.5313V19.4944C69.6892 19.3962 69.8619 19.1259 70.1826 18.6837C70.5279 18.2415 70.9226 17.7501 71.3667 17.2096C71.8354 16.6692 72.3041 16.1532 72.7728 15.6619C73.2662 15.146 73.6856 14.7774 74.0309 14.5563H78.4714L81.9867 4.97495H74.993V4.9381C75.0177 4.83983 75.1904 4.56958 75.5111 4.12737C75.8564 3.68515 76.2511 3.1938 76.6952 2.65331C77.1639 2.11282 77.6326 1.5969 78.1013 1.10555C78.5947 0.589624 79.0141 0.221109 79.3594 0H97.8982C97.7255 0.343947 97.4295 0.798449 97.0101 1.3635C96.6154 1.90399 96.1837 2.44448 95.715 2.98497C95.271 3.52546 94.8269 3.99224 94.3829 4.38533C93.9635 4.77841 93.6551 4.97495 93.4578 4.97495H89.0914L85.576 14.5563H92.5697C92.397 14.9003 92.101 15.3548 91.6816 15.9198C91.2869 16.4603 90.8552 17.0008 90.3865 17.5413C89.9425 18.0818 89.4984 18.5486 89.0544 18.9417C88.635 19.3347 88.3266 19.5313 88.1293 19.5313H69.6645Z" fill="#DDE9F9"/>
<path d="M92.6515 19.5313L99.7932 0H106.861L101.532 14.5563H113.263C113.287 14.5563 113.139 14.7652 112.818 15.1828C112.522 15.6005 112.14 16.0918 111.671 16.6569C111.203 17.1974 110.709 17.7501 110.191 18.3152C109.673 18.8557 109.241 19.261 108.896 19.5313H92.6515Z" fill="#DDE9F9"/>
<path d="M114.257 19.5313L117.662 10.2447L113.48 0H121.399L123.249 4.60643L128.504 0H136.422L124.766 10.2447L121.362 19.5313H114.257Z" fill="#DDE9F9"/>
<path d="M147.052 0H168.086C167.914 0.343947 167.619 0.798449 167.201 1.3635C166.807 1.90399 166.377 2.44448 165.909 2.98497C165.466 3.52546 165.024 3.99224 164.581 4.38533C164.163 4.77841 163.855 4.97495 163.658 4.97495H152.292L150.189 10.7606L153.695 7.3703H162.219L156.942 12.3452H149.599L146.978 19.5313H139.93L147.052 0Z" fill="url(#paint0_radial_988_77)"/>
<path d="M162.85 19.5313L169.972 0H186.43C187.267 0 187.943 0.184257 188.46 0.552772C189.001 0.921288 189.419 1.38807 189.715 1.95313C190.01 2.51818 190.207 3.13238 190.305 3.7957C190.428 4.45903 190.49 5.07322 190.49 5.63828C190.49 6.89123 190.182 7.92307 189.567 8.7338C188.952 9.54453 188.177 10.1956 187.242 10.6869C186.332 11.1537 185.311 11.4977 184.179 11.7188C183.072 11.9153 182.027 12.0504 181.043 12.1241L188.275 19.5313H180.378L172.777 12.5295L172.371 12.8243L169.935 19.5313H162.85ZM183.331 6.04364V5.63828C183.331 5.44174 183.294 5.28205 183.22 5.15921C183.146 5.0118 182.961 4.9381 182.666 4.9381H175.249L173.146 10.6869L176.393 7.40715H182.297C182.666 7.40715 182.925 7.24746 183.072 6.92808C183.244 6.58413 183.331 6.28932 183.331 6.04364Z" fill="url(#paint1_radial_988_77)"/>
<path d="M195.558 0H216.593C216.42 0.343947 216.125 0.798449 215.707 1.3635C215.313 1.90399 214.883 2.44448 214.415 2.98497C213.973 3.52546 213.53 3.99224 213.087 4.38533C212.669 4.77841 212.361 4.97495 212.164 4.97495H200.798L198.695 10.7606L202.201 7.3703H210.725L205.448 12.3452H198.105L197.293 14.5563H211.426C211.402 14.6055 211.34 14.716 211.242 14.888C211.143 15.0354 211.045 15.1951 210.947 15.3671C210.848 15.539 210.75 15.6987 210.651 15.8461C210.553 15.9935 210.491 16.0795 210.467 16.1041C210.245 16.3989 209.938 16.7429 209.544 17.1359C209.175 17.529 208.806 17.9098 208.437 18.2783C208.068 18.6223 207.736 18.9171 207.441 19.1628C207.17 19.4084 207.023 19.5313 206.998 19.5313H188.436L195.558 0Z" fill="url(#paint2_radial_988_77)"/>
<path d="M218.622 0H239.656C239.484 0.343947 239.189 0.798449 238.771 1.3635C238.377 1.90399 237.947 2.44448 237.479 2.98497C237.036 3.52546 236.594 3.99224 236.151 4.38533C235.732 4.77841 235.425 4.97495 235.228 4.97495H223.862L221.759 10.7606L225.265 7.3703H233.789L228.512 12.3452H221.168L220.357 14.5563H234.49C234.465 14.6055 234.404 14.716 234.306 14.888C234.207 15.0354 234.109 15.1951 234.01 15.3671C233.912 15.539 233.814 15.6987 233.715 15.8461C233.617 15.9935 233.555 16.0795 233.531 16.1041C233.309 16.3989 233.002 16.7429 232.608 17.1359C232.239 17.529 231.87 17.9098 231.501 18.2783C231.132 18.6223 230.8 18.9171 230.505 19.1628C230.234 19.4084 230.086 19.5313 230.062 19.5313H211.5L218.622 0Z" fill="url(#paint3_radial_988_77)"/>
<path d="M159.194 40.2633V40.1884C159.194 38.9902 159.457 37.7545 159.984 36.4814C160.51 35.2083 161.224 34.0599 162.126 33.0364C163.028 32.0129 164.068 31.1767 165.246 30.5276C166.423 29.8536 167.676 29.5166 169.004 29.5166H184.527C183.8 30.4652 183.061 31.3639 182.309 32.2126C181.583 33.0364 180.781 33.8228 179.904 34.5717H170.132C169.806 34.5717 169.455 34.684 169.079 34.9087C168.729 35.1084 168.378 35.383 168.027 35.7325C167.701 36.082 167.401 36.4814 167.125 36.9307C166.849 37.3551 166.636 37.7795 166.486 38.2039C166.285 38.8529 166.185 39.3647 166.185 39.7391C166.185 40.2134 166.311 40.7252 166.561 41.2744C166.812 41.7986 167.125 42.2854 167.501 42.7347C167.902 43.1841 168.328 43.5585 168.779 43.8581C169.255 44.1576 169.706 44.3074 170.132 44.3074H179.115C178.538 45.1562 177.887 46.0299 177.16 46.9286C176.434 47.8023 175.594 48.6136 174.642 49.3625H171.635C170.082 49.3625 168.566 49.2252 167.087 48.9506C165.609 48.676 164.281 48.2017 163.103 47.5277C161.926 46.8287 160.973 45.8926 160.247 44.7193C159.545 43.546 159.194 42.0607 159.194 40.2633Z" fill="#DDE9F9"/>
<path d="M205.245 49.3625H198.555L197.766 45.1312C197.716 45.281 197.528 45.5681 197.202 45.9924C196.901 46.4168 196.551 46.8661 196.15 47.3405C195.774 47.8148 195.398 48.2516 195.022 48.651C194.646 49.0504 194.371 49.2876 194.195 49.3625H178.297C178.347 49.1628 178.372 49.0754 178.372 49.1004V48.988L191.903 31.7633C191.978 31.6135 192.128 31.4138 192.354 31.1642C192.579 30.9146 192.817 30.6774 193.068 30.4527C193.343 30.2031 193.606 29.9909 193.857 29.8162C194.133 29.6165 194.358 29.5166 194.534 29.5166H200.848C201.099 29.5166 201.324 29.6539 201.525 29.9285C201.75 30.2031 201.938 30.5401 202.088 30.9395C202.239 31.3389 202.364 31.7633 202.464 32.2126C202.589 32.637 202.69 32.999 202.765 33.2986L205.245 49.3625ZM190.136 43.9704V44.3448H197.766L196.45 35.5453L190.136 43.9704Z" fill="#DDE9F9"/>
<path d="M224.236 42.847C224.236 42.6473 224.198 42.4476 224.123 42.2479C224.048 42.0233 223.91 41.9109 223.71 41.9109H216.193C215.441 41.9109 214.764 41.7362 214.163 41.3867C213.562 41.0122 213.035 40.5504 212.584 40.0012C212.158 39.4271 211.833 38.803 211.607 38.129C211.382 37.455 211.269 36.7934 211.269 36.1444C211.269 35.5453 211.444 34.8712 211.795 34.1223C212.146 33.3485 212.597 32.6245 213.148 31.9505C213.699 31.2516 214.326 30.6774 215.027 30.2281C215.729 29.7538 216.431 29.5166 217.132 29.5166H236.301C235.725 30.3654 235.061 31.2141 234.309 32.0629C233.582 32.9116 232.768 33.7604 231.866 34.6091H219.463C219.187 34.6091 218.949 34.7964 218.748 35.1708C218.548 35.5453 218.448 35.8448 218.448 36.0695V36.2567C218.448 36.2817 218.498 36.3441 218.598 36.4439C218.698 36.5188 218.773 36.5812 218.824 36.6312C218.924 36.731 219.062 36.8309 219.237 36.9307C219.437 37.0056 219.55 37.0431 219.575 37.0431H226.717C227.518 37.0431 228.207 37.2428 228.784 37.6422C229.36 38.0166 229.824 38.5034 230.174 39.1025C230.55 39.6767 230.826 40.3008 231.001 40.9748C231.177 41.6488 231.264 42.2729 231.264 42.847V43.0717C231.264 43.7208 231.114 44.4197 230.813 45.1686C230.513 45.8926 230.112 46.5666 229.611 47.1907C229.135 47.8148 228.571 48.339 227.919 48.7634C227.293 49.1628 226.641 49.3625 225.965 49.3625H206.796C206.921 49.1129 207.172 48.7134 207.548 48.1642C207.949 47.6151 208.362 47.0659 208.788 46.5167C209.239 45.9425 209.653 45.4432 210.029 45.0189C210.404 44.5695 210.63 44.3448 210.705 44.3448H223.484C223.86 44.3448 224.073 44.2325 224.123 44.0078C224.198 43.7832 224.236 43.546 224.236 43.2964V42.847Z" fill="#DDE9F9"/>
<path d="M238.449 29.5166H259.873C259.698 29.8661 259.397 30.3279 258.971 30.9021C258.57 31.4513 258.131 32.0005 257.655 32.5497C257.204 33.0988 256.753 33.5732 256.302 33.9726C255.876 34.372 255.563 34.5717 255.363 34.5717H243.786L241.644 40.4506L245.215 37.0056H253.897L248.522 42.0607H241.043L240.216 44.3074H254.611C254.586 44.3573 254.523 44.4697 254.423 44.6444C254.323 44.7942 254.223 44.9565 254.122 45.1312C254.022 45.3059 253.922 45.4682 253.822 45.618C253.721 45.7678 253.659 45.8551 253.634 45.8801C253.408 46.1797 253.095 46.5291 252.694 46.9286C252.318 47.328 251.942 47.7149 251.566 48.0894C251.191 48.4388 250.852 48.7384 250.552 48.988C250.276 49.2377 250.126 49.3625 250.101 49.3625H231.195L238.449 29.5166Z" fill="#DDE9F9"/>
<path d="M17.3991 42.847C17.3991 42.6473 17.3616 42.4476 17.2866 42.2479C17.2116 42.0233 17.0741 41.9109 16.8742 41.9109H9.37453C8.62457 41.9109 7.9496 41.7362 7.34963 41.3867C6.74966 41.0122 6.22469 40.5504 5.77471 40.0012C5.34973 39.4271 5.02475 38.803 4.79976 38.129C4.57477 37.455 4.46228 36.7934 4.46228 36.1444C4.46228 35.5453 4.63727 34.8712 4.98725 34.1223C5.33723 33.3485 5.78721 32.6245 6.33718 31.9505C6.88716 31.2516 7.51213 30.6774 8.21209 30.2281C8.91206 29.7538 9.61202 29.5166 10.312 29.5166H29.436C28.8611 30.3654 28.1986 31.2141 27.4486 32.0629C26.7237 32.9116 25.9112 33.7604 25.0113 34.6091H12.6369C12.3619 34.6091 12.1244 34.7964 11.9244 35.1708C11.7244 35.5453 11.6244 35.8448 11.6244 36.0695V36.2567C11.6244 36.2817 11.6744 36.3441 11.7744 36.4439C11.8744 36.5188 11.9494 36.5812 11.9994 36.6312C12.0994 36.731 12.2369 36.8309 12.4119 36.9307C12.6119 37.0056 12.7244 37.0431 12.7494 37.0431H19.874C20.674 37.0431 21.3614 37.2428 21.9364 37.6422C22.5114 38.0166 22.9739 38.5034 23.3238 39.1025C23.6988 39.6767 23.9738 40.3008 24.1488 40.9748C24.3238 41.6488 24.4113 42.2729 24.4113 42.847V43.0717C24.4113 43.7208 24.2613 44.4197 23.9613 45.1686C23.6613 45.8926 23.2613 46.5666 22.7614 47.1907C22.2864 47.8148 21.7239 48.339 21.074 48.7634C20.449 49.1628 19.799 49.3625 19.124 49.3625H0C0.124994 49.1129 0.374981 48.7134 0.749963 48.1642C1.14994 47.615 1.56242 47.0659 1.9874 46.5167C2.43738 45.9425 2.84986 45.4432 3.22484 45.0189C3.59982 44.5695 3.82481 44.3448 3.89981 44.3448H16.6492C17.0242 44.3448 17.2366 44.2325 17.2866 44.0078C17.3616 43.7832 17.3991 43.546 17.3991 43.2964V42.847Z" fill="url(#paint4_radial_988_77)"/>
<path d="M51.8233 38.6158C51.5983 40.0886 51.1108 41.4741 50.3609 42.7722C49.6109 44.0703 48.6735 45.2061 47.5485 46.1797C46.4486 47.1532 45.1986 47.9271 43.7987 48.5013C42.4238 49.0754 40.9988 49.3625 39.5239 49.3625H35.7741C34.3992 49.3625 33.1242 49.2502 31.9493 49.0255C30.7743 48.8008 29.7619 48.4264 28.9119 47.9021C28.062 47.3529 27.387 46.6165 26.887 45.6929C26.4121 44.7692 26.1746 43.6084 26.1746 42.2105C26.1746 41.9109 26.1871 41.5989 26.2121 41.2744C26.2371 40.9498 26.2746 40.6128 26.3246 40.2633C26.5246 38.8654 26.987 37.5174 27.712 36.2193C28.437 34.9212 29.3369 33.7853 30.4119 32.8118C31.4868 31.8132 32.6618 31.0144 33.9367 30.4153C35.2366 29.8162 36.5491 29.5166 37.874 29.5166H42.8237C45.8486 29.5166 48.136 30.0408 49.6859 31.0893C51.2608 32.1128 52.0483 33.8228 52.0483 36.2193C52.0483 36.9682 51.9733 37.767 51.8233 38.6158ZM33.3742 39.7391C33.3492 39.7641 33.3367 39.8514 33.3367 40.0012V40.2259C33.3367 40.6752 33.4242 41.1495 33.5992 41.6488C33.7742 42.1231 34.0117 42.56 34.3117 42.9594C34.6117 43.3588 34.9616 43.6833 35.3616 43.933C35.7616 44.1826 36.1866 44.3074 36.6366 44.3074H39.1114C39.3614 44.3074 39.7114 44.2075 40.1614 44.0078C40.6364 43.7832 41.1238 43.4961 41.6238 43.1466C42.1238 42.7971 42.5988 42.4102 43.0487 41.9858C43.4987 41.5365 43.8362 41.0996 44.0612 40.6752C44.2862 40.3257 44.4237 40.0511 44.4737 39.8514L44.6237 39.477C44.6737 39.2274 44.6987 39.115 44.6987 39.14C44.7237 38.9403 44.7362 38.7406 44.7362 38.5409C44.7612 38.3162 44.7737 38.0915 44.7737 37.8669C44.7737 37.4674 44.7361 37.068 44.6612 36.6686C44.5862 36.2692 44.4362 35.9197 44.2112 35.6201C43.9862 35.2956 43.6737 35.046 43.2737 34.8712C42.8987 34.6715 42.3988 34.5717 41.7738 34.5717H38.7364C38.3365 34.5717 37.899 34.684 37.424 34.9087C36.974 35.1084 36.5241 35.383 36.0741 35.7325C35.6241 36.082 35.1991 36.4814 34.7991 36.9307C34.4242 37.3551 34.1242 37.7795 33.8992 38.2039C33.7742 38.5034 33.6617 38.7905 33.5617 39.0651C33.4617 39.3147 33.3992 39.5394 33.3742 39.7391Z" fill="url(#paint5_radial_988_77)"/>
<path d="M50.0123 49.3625L57.2494 29.5166H64.4115L59.0118 44.3074H70.8987C70.9237 44.3074 70.7737 44.5196 70.4487 44.944C70.1488 45.3683 69.7613 45.8676 69.2863 46.4418C68.8113 46.991 68.3113 47.5526 67.7864 48.1268C67.2614 48.676 66.8239 49.0879 66.4739 49.3625H50.0123Z" fill="url(#paint6_radial_988_77)"/>
<path d="M96.8855 49.3625H90.2108L89.4234 45.1312C89.3734 45.281 89.1859 45.5681 88.8609 45.9924C88.5609 46.4168 88.2109 46.8661 87.811 47.3405C87.436 47.8148 87.061 48.2516 86.686 48.651C86.311 49.0504 86.036 49.2876 85.8611 49.3625H69.9993C70.0493 49.1628 70.0743 49.0754 70.0743 49.1004V48.988L83.5737 31.7633C83.6487 31.6135 83.7987 31.4138 84.0236 31.1642C84.2486 30.9146 84.4861 30.6774 84.7361 30.4527C85.0111 30.2031 85.2736 29.9909 85.5236 29.8162C85.7986 29.6165 86.0235 29.5166 86.1985 29.5166H92.4982C92.7482 29.5166 92.9732 29.6539 93.1732 29.9285C93.3982 30.2031 93.5857 30.5401 93.7357 30.9395C93.8857 31.3389 94.0106 31.7633 94.1106 32.2126C94.2356 32.637 94.3356 32.999 94.4106 33.2986L95.6481 41.3305L96.8855 49.3625ZM81.8113 43.9704V44.3448H89.4234L88.1109 35.5453L81.8113 43.9704Z" fill="url(#paint7_radial_988_77)"/>
<path d="M98.606 49.3625L105.843 29.5166H114.918L117.055 40.6752L121.142 29.5166H128.267L121.03 49.3625H111.955L109.855 38.2039L105.806 49.3625H98.606Z" fill="url(#paint8_radial_988_77)"/>
<path d="M149.727 49.3625H143.052L142.265 45.1312C142.215 45.281 142.027 45.5681 141.703 45.9924C141.403 46.4168 141.053 46.8661 140.653 47.3405C140.278 47.8148 139.903 48.2516 139.528 48.651C139.153 49.0504 138.878 49.2876 138.703 49.3625H122.841C122.891 49.1628 122.916 49.0754 122.916 49.1004V48.988L136.415 31.7633C136.49 31.6135 136.64 31.4138 136.865 31.1642C137.09 30.9146 137.328 30.6774 137.578 30.4527C137.853 30.2031 138.115 29.9909 138.365 29.8162C138.64 29.6165 138.865 29.5166 139.04 29.5166H145.34C145.59 29.5166 145.815 29.6539 146.015 29.9285C146.24 30.2031 146.427 30.5401 146.577 30.9395C146.727 31.3389 146.852 31.7633 146.952 32.2126C147.077 32.637 147.177 32.999 147.252 33.2986L149.727 49.3625ZM134.653 43.9704V44.3448H142.265L140.953 35.5453L134.653 43.9704Z" fill="url(#paint9_radial_988_77)"/>
<defs>
<radialGradient id="paint0_radial_988_77" cx="0" cy="0" r="1" gradientUnits="userSpaceOnUse" gradientTransform="translate(189.793 -5.38252) rotate(90) scale(33.0376 68.3459)">
<stop stop-color="#D787FF"/>
<stop offset="1" stop-color="#6741FF"/>
</radialGradient>
<radialGradient id="paint1_radial_988_77" cx="0" cy="0" r="1" gradientUnits="userSpaceOnUse" gradientTransform="translate(189.793 -5.38252) rotate(90) scale(33.0376 68.3459)">
<stop stop-color="#D787FF"/>
<stop offset="1" stop-color="#6741FF"/>
</radialGradient>
<radialGradient id="paint2_radial_988_77" cx="0" cy="0" r="1" gradientUnits="userSpaceOnUse" gradientTransform="translate(189.793 -5.38252) rotate(90) scale(33.0376 68.3459)">
<stop stop-color="#D787FF"/>
<stop offset="1" stop-color="#6741FF"/>
</radialGradient>
<radialGradient id="paint3_radial_988_77" cx="0" cy="0" r="1" gradientUnits="userSpaceOnUse" gradientTransform="translate(189.793 -5.38252) rotate(90) scale(33.0376 68.3459)">
<stop stop-color="#D787FF"/>
<stop offset="1" stop-color="#6741FF"/>
</radialGradient>
<radialGradient id="paint4_radial_988_77" cx="0" cy="0" r="1" gradientUnits="userSpaceOnUse" gradientTransform="translate(74.8636 24.0474) rotate(90) scale(33.5697 102.613)">
<stop stop-color="#D787FF"/>
<stop offset="1" stop-color="#6741FF"/>
</radialGradient>
<radialGradient id="paint5_radial_988_77" cx="0" cy="0" r="1" gradientUnits="userSpaceOnUse" gradientTransform="translate(74.8636 24.0474) rotate(90) scale(33.5697 102.613)">
<stop stop-color="#D787FF"/>
<stop offset="1" stop-color="#6741FF"/>
</radialGradient>
<radialGradient id="paint6_radial_988_77" cx="0" cy="0" r="1" gradientUnits="userSpaceOnUse" gradientTransform="translate(74.8636 24.0474) rotate(90) scale(33.5697 102.613)">
<stop stop-color="#D787FF"/>
<stop offset="1" stop-color="#6741FF"/>
</radialGradient>
<radialGradient id="paint7_radial_988_77" cx="0" cy="0" r="1" gradientUnits="userSpaceOnUse" gradientTransform="translate(74.8636 24.0474) rotate(90) scale(33.5697 102.613)">
<stop stop-color="#D787FF"/>
<stop offset="1" stop-color="#6741FF"/>
</radialGradient>
<radialGradient id="paint8_radial_988_77" cx="0" cy="0" r="1" gradientUnits="userSpaceOnUse" gradientTransform="translate(74.8636 24.0474) rotate(90) scale(33.5697 102.613)">
<stop stop-color="#D787FF"/>
<stop offset="1" stop-color="#6741FF"/>
</radialGradient>
<radialGradient id="paint9_radial_988_77" cx="0" cy="0" r="1" gradientUnits="userSpaceOnUse" gradientTransform="translate(74.8636 24.0474) rotate(90) scale(33.5697 102.613)">
<stop stop-color="#D787FF"/>
<stop offset="1" stop-color="#6741FF"/>
</radialGradient>
</defs>
</svg>
