<svg width="259" height="73" viewBox="0 0 259 73" fill="none" xmlns="http://www.w3.org/2000/svg">
<path d="M25.0211 45L36.4081 13.73H50.6861L54.0491 31.312L60.4801 13.73H71.6901L60.3031 45H46.0251L42.7211 27.418L36.3491 45H25.0211ZM109.999 28.067C109.645 30.2697 108.878 32.3937 107.698 34.439C106.518 36.4843 105.062 38.2937 103.332 39.867C101.601 41.401 99.6343 42.64 97.4317 43.584C95.2683 44.528 93.0067 45 90.6467 45H83.7437C81.5803 45 79.5743 44.823 77.7257 44.469C75.877 44.115 74.284 43.525 72.9467 42.699C71.6093 41.8337 70.5473 40.6733 69.7607 39.218C69.0133 37.7627 68.6397 35.9337 68.6397 33.731C68.6397 33.259 68.6593 32.7673 68.6987 32.256C68.738 31.7447 68.797 31.2137 68.8757 30.663C69.151 28.539 69.859 26.474 70.9997 24.468C72.1403 22.4227 73.5563 20.6133 75.2477 19.04C76.939 17.4273 78.8073 16.149 80.8527 15.205C82.898 14.2217 84.963 13.73 87.0477 13.73H95.8387C98.0807 13.73 100.087 13.9463 101.857 14.379C103.627 14.7723 105.141 15.4017 106.4 16.267C107.658 17.1323 108.622 18.273 109.291 19.689C109.959 21.0657 110.294 22.7177 110.294 24.645C110.294 25.1957 110.274 25.7463 110.235 26.297C110.195 26.8477 110.117 27.4377 109.999 28.067ZM79.9677 29.837C79.8103 30.7417 79.8497 31.6267 80.0857 32.492C80.3217 33.3573 80.6953 34.1243 81.2067 34.793C81.718 35.4617 82.308 36.0123 82.9767 36.445C83.6847 36.8383 84.3927 37.035 85.1007 37.035H89.9977C90.9023 37.035 91.866 36.7007 92.8887 36.032C93.9507 35.3633 94.9143 34.5373 95.7797 33.554C96.6843 32.5313 97.4317 31.43 98.0217 30.25C98.6117 29.07 98.9067 27.949 98.9067 26.887C98.9067 26.2577 98.8477 25.6283 98.7297 24.999C98.6117 24.3697 98.3757 23.819 98.0217 23.347C97.6677 22.8357 97.176 22.4423 96.5467 22.167C95.9567 21.8523 95.17 21.695 94.1867 21.695H88.4047C87.5787 21.695 86.6937 21.9507 85.7497 22.462C84.845 22.9733 83.9797 23.6223 83.1537 24.409C82.3277 25.1957 81.6197 26.0807 81.0297 27.064C80.4397 28.008 80.0857 28.9323 79.9677 29.837ZM122.625 45L134.012 13.73H145.34L140.207 27.772L159.736 13.73H172.362L151.771 29.719L163.276 45H150.65L139.086 30.958L133.953 45H122.625ZM175.857 45L181.285 30.132L174.618 13.73H187.244L190.194 21.105L198.572 13.73H211.198L192.613 30.132L187.185 45H175.857ZM205.903 30.663V30.545C205.903 28.657 206.316 26.71 207.142 24.704C207.968 22.698 209.089 20.8887 210.505 19.276C211.921 17.6633 213.553 16.3457 215.402 15.323C217.251 14.261 219.217 13.73 221.302 13.73H245.669C244.528 15.2247 243.368 16.6407 242.188 17.978C241.047 19.276 239.789 20.515 238.412 21.695H223.072C222.364 21.695 221.636 21.9507 220.889 22.462C220.181 22.934 219.532 23.5633 218.942 24.35C218.352 25.1367 217.86 26.0217 217.467 27.005C217.074 27.949 216.877 28.893 216.877 29.837C216.838 32.0397 217.329 33.79 218.352 35.088C219.375 36.386 220.948 37.035 223.072 37.035H237.173C236.268 38.3723 235.246 39.749 234.105 41.165C232.964 42.5417 231.647 43.82 230.152 45H225.432C222.993 45 220.614 44.7837 218.293 44.351C215.972 43.9183 213.888 43.171 212.039 42.109C210.19 41.0077 208.696 39.5327 207.555 37.684C206.454 35.8353 205.903 33.495 205.903 30.663Z" fill="url(#paint0_radial_988_68)"/>
<path d="M4.89911 54.7148V70H1.76019V54.7148H4.89911ZM20.9342 54.7148V70H17.7848L11.6435 59.7539V70H8.49406V54.7148H11.6435L17.7953 64.9714V54.7148H20.9342ZM32.2768 66.0002C32.2768 65.7273 32.2348 65.4823 32.1508 65.2654C32.0738 65.0414 31.9268 64.8385 31.7099 64.6565C31.4929 64.4675 31.1885 64.2821 30.7965 64.1001C30.4046 63.9181 29.8972 63.7292 29.2743 63.5332C28.5814 63.3092 27.9236 63.0573 27.3007 62.7773C26.6848 62.4974 26.1389 62.172 25.663 61.801C25.1941 61.4231 24.8231 60.9857 24.5502 60.4888C24.2842 59.9919 24.1513 59.4145 24.1513 58.7566C24.1513 58.1197 24.2912 57.5423 24.5712 57.0244C24.8511 56.4995 25.2431 56.0516 25.747 55.6807C26.2509 55.3027 26.8458 55.0123 27.5316 54.8093C28.2245 54.6064 28.9839 54.5049 29.8097 54.5049C30.9365 54.5049 31.9198 54.7078 32.7597 55.1138C33.5995 55.5197 34.2504 56.0761 34.7123 56.783C35.1812 57.4898 35.4157 58.2982 35.4157 59.208H32.2873C32.2873 58.7601 32.1928 58.3682 32.0038 58.0322C31.8218 57.6893 31.5419 57.4198 31.164 57.2239C30.793 57.0279 30.3241 56.9299 29.7572 56.9299C29.2113 56.9299 28.7564 57.0139 28.3925 57.1819C28.0285 57.3429 27.7556 57.5633 27.5736 57.8433C27.3917 58.1162 27.3007 58.4242 27.3007 58.7671C27.3007 59.026 27.3637 59.2605 27.4896 59.4705C27.6226 59.6804 27.8186 59.8764 28.0775 60.0583C28.3365 60.2403 28.6549 60.4118 29.0329 60.5728C29.4108 60.7337 29.8482 60.8912 30.3451 61.0452C31.178 61.2971 31.9093 61.5806 32.5392 61.8955C33.1761 62.2104 33.708 62.5639 34.1349 62.9558C34.5618 63.3477 34.8838 63.7922 35.1007 64.2891C35.3177 64.786 35.4262 65.3494 35.4262 65.9792C35.4262 66.6441 35.2967 67.239 35.0377 67.7639C34.7788 68.2888 34.4044 68.7332 33.9145 69.0972C33.4245 69.4611 32.8402 69.7375 32.1613 69.9265C31.4824 70.1155 30.723 70.21 29.8832 70.21C29.1273 70.21 28.382 70.112 27.6471 69.916C26.9123 69.7131 26.2439 69.4086 25.642 69.0027C25.0471 68.5968 24.5712 68.0789 24.2143 67.449C23.8573 66.8191 23.6789 66.0737 23.6789 65.2129H26.8388C26.8388 65.6888 26.9123 66.0912 27.0592 66.4202C27.2062 66.7491 27.4127 67.0151 27.6786 67.218C27.9516 67.421 28.2735 67.568 28.6444 67.6589C29.0224 67.7499 29.4353 67.7954 29.8832 67.7954C30.4291 67.7954 30.877 67.7184 31.227 67.5645C31.5839 67.4105 31.8463 67.197 32.0143 66.9241C32.1893 66.6511 32.2768 66.3432 32.2768 66.0002ZM45.047 54.7148V70H41.9081V54.7148H45.047ZM49.7501 54.7148V57.1819H37.2784V54.7148H49.7501ZM57.2713 57.3289L53.1141 70H49.7652L55.4447 54.7148H57.5758L57.2713 57.3289ZM60.7252 70L56.5575 57.3289L56.2215 54.7148H58.3736L64.0846 70H60.7252ZM60.5362 64.3101V66.7771H52.4632V64.3101H60.5362ZM78.587 54.7148V70H75.4376L69.2962 59.7539V70H66.1468V54.7148H69.2962L75.4481 64.9714V54.7148H78.587ZM88.4913 54.7148V70H85.3524V54.7148H88.4913ZM93.1944 54.7148V57.1819H80.7227V54.7148H93.1944ZM104.751 67.575L107.796 54.7148H109.497L109.885 56.8564L106.641 70H104.814L104.751 67.575ZM103.187 54.7148L105.707 67.575L105.497 70H103.46L100.069 54.7148H103.187ZM112.562 67.5225L115.05 54.7148H118.168L114.788 70H112.751L112.562 67.5225ZM110.452 54.7148L113.517 67.6274L113.433 70H111.607L108.342 56.8459L108.762 54.7148H110.452ZM123.873 54.7148V70H120.734V54.7148H123.873ZM133.987 54.7148V70H130.848V54.7148H133.987ZM138.69 54.7148V57.1819H126.219V54.7148H138.69ZM151.324 60.9402V63.3967H143.346V60.9402H151.324ZM144.28 54.7148V70H141.131V54.7148H144.28ZM153.571 54.7148V70H150.432V54.7148H153.571ZM161.648 70H158.321L158.342 67.5435H161.648C162.474 67.5435 163.171 67.358 163.738 66.9871C164.304 66.6091 164.731 66.0597 165.018 65.3389C165.312 64.618 165.459 63.7467 165.459 62.7249V61.9795C165.459 61.1956 165.375 60.5063 165.207 59.9114C165.046 59.3165 164.805 58.8161 164.483 58.4102C164.161 58.0042 163.765 57.6998 163.297 57.4968C162.828 57.2869 162.289 57.1819 161.68 57.1819H158.258V54.7148H161.68C162.702 54.7148 163.636 54.8898 164.483 55.2397C165.337 55.5827 166.075 56.0761 166.698 56.72C167.321 57.3639 167.8 58.1337 168.136 59.0295C168.479 59.9184 168.651 60.9087 168.651 62.0005V62.7249C168.651 63.8097 168.479 64.8 168.136 65.6958C167.8 66.5916 167.321 67.3615 166.698 68.0054C166.082 68.6423 165.344 69.1357 164.483 69.4856C163.629 69.8285 162.684 70 161.648 70ZM160.105 54.7148V70H156.956V54.7148H160.105ZM171.584 54.7148H177.285C178.453 54.7148 179.458 54.8898 180.298 55.2397C181.144 55.5897 181.795 56.1076 182.25 56.7935C182.705 57.4793 182.933 58.3227 182.933 59.3235C182.933 60.1423 182.793 60.8457 182.513 61.4336C182.24 62.0145 181.851 62.5009 181.347 62.8928C180.85 63.2778 180.266 63.5857 179.594 63.8167L178.597 64.3416H173.642L173.621 61.885H177.306C177.858 61.885 178.317 61.787 178.681 61.5911C179.045 61.3951 179.318 61.1222 179.5 60.7722C179.689 60.4223 179.783 60.0164 179.783 59.5544C179.783 59.0645 179.692 58.6411 179.51 58.2842C179.328 57.9272 179.052 57.6543 178.681 57.4653C178.31 57.2764 177.844 57.1819 177.285 57.1819H174.734V70H171.584V54.7148ZM180.13 70L176.644 63.1868L179.972 63.1658L183.499 69.853V70H180.13ZM192.217 57.3289L188.06 70H184.711L190.391 54.7148H192.522L192.217 57.3289ZM195.671 70L191.504 57.3289L191.168 54.7148H193.32L199.031 70H195.671ZM195.482 64.3101V66.7771H187.409V64.3101H195.482ZM204.253 67.575L207.297 54.7148H208.998L209.386 56.8564L206.142 70H204.316L204.253 67.575ZM202.689 54.7148L205.208 67.575L204.998 70H202.962L199.571 54.7148H202.689ZM212.063 67.5225L214.551 54.7148H217.669L214.289 70H212.252L212.063 67.5225ZM209.953 54.7148L213.019 67.6274L212.935 70H211.108L207.843 56.8459L208.263 54.7148H209.953ZM225.778 57.3289L221.621 70H218.272L223.952 54.7148H226.083L225.778 57.3289ZM229.232 70L225.065 57.3289L224.729 54.7148H226.881L232.592 70H229.232ZM229.043 64.3101V66.7771H220.97V64.3101H229.043ZM244.48 67.5435V70H236.785V67.5435H244.48ZM237.803 54.7148V70H234.654V54.7148H237.803ZM254.888 66.0002C254.888 65.7273 254.846 65.4823 254.762 65.2654C254.685 65.0414 254.538 64.8385 254.321 64.6565C254.104 64.4675 253.8 64.2821 253.408 64.1001C253.016 63.9181 252.509 63.7292 251.886 63.5332C251.193 63.3092 250.535 63.0573 249.912 62.7773C249.296 62.4974 248.75 62.172 248.274 61.801C247.806 61.4231 247.435 60.9857 247.162 60.4888C246.896 59.9919 246.763 59.4145 246.763 58.7566C246.763 58.1197 246.903 57.5423 247.183 57.0244C247.463 56.4995 247.855 56.0516 248.358 55.6807C248.862 55.3027 249.457 55.0123 250.143 54.8093C250.836 54.6064 251.595 54.5049 252.421 54.5049C253.548 54.5049 254.531 54.7078 255.371 55.1138C256.211 55.5197 256.862 56.0761 257.324 56.783C257.793 57.4898 258.027 58.2982 258.027 59.208H254.899C254.899 58.7601 254.804 58.3682 254.615 58.0322C254.433 57.6893 254.153 57.4198 253.775 57.2239C253.405 57.0279 252.936 56.9299 252.369 56.9299C251.823 56.9299 251.368 57.0139 251.004 57.1819C250.64 57.3429 250.367 57.5633 250.185 57.8433C250.003 58.1162 249.912 58.4242 249.912 58.7671C249.912 59.026 249.975 59.2605 250.101 59.4705C250.234 59.6804 250.43 59.8764 250.689 60.0583C250.948 60.2403 251.266 60.4118 251.644 60.5728C252.022 60.7337 252.46 60.8912 252.957 61.0452C253.789 61.2971 254.521 61.5806 255.151 61.8955C255.788 62.2104 256.319 62.5639 256.746 62.9558C257.173 63.3477 257.495 63.7922 257.712 64.2891C257.929 64.786 258.038 65.3494 258.038 65.9792C258.038 66.6441 257.908 67.239 257.649 67.7639C257.39 68.2888 257.016 68.7332 256.526 69.0972C256.036 69.4611 255.452 69.7375 254.773 69.9265C254.094 70.1155 253.335 70.21 252.495 70.21C251.739 70.21 250.993 70.112 250.259 69.916C249.524 69.7131 248.855 69.4086 248.253 69.0027C247.659 68.5968 247.183 68.0789 246.826 67.449C246.469 66.8191 246.29 66.0737 246.29 65.2129H249.45C249.45 65.6888 249.524 66.0912 249.671 66.4202C249.818 66.7491 250.024 67.0151 250.29 67.218C250.563 67.421 250.885 67.568 251.256 67.6589C251.634 67.7499 252.047 67.7954 252.495 67.7954C253.041 67.7954 253.489 67.7184 253.838 67.5645C254.195 67.4105 254.458 67.197 254.626 66.9241C254.801 66.6511 254.888 66.3432 254.888 66.0002Z" fill="#DDE9F9"/>
<defs>
<radialGradient id="paint0_radial_988_68" cx="0" cy="0" r="1" gradientUnits="userSpaceOnUse" gradientTransform="translate(141.963 3.68804e-06) rotate(90) scale(61.875 118.963)">
<stop stop-color="#D787FF"/>
<stop offset="1" stop-color="#6741FF"/>
</radialGradient>
</defs>
</svg>
