<svg width="82" height="69" viewBox="0 0 82 69" fill="none" xmlns="http://www.w3.org/2000/svg">
<path fill-rule="evenodd" clip-rule="evenodd" d="M32.7238 52.5377C28.0308 59.8043 20.1669 69 9.70297 69C4.75639 69 0 66.9422 0 58.0037C0 35.2395 30.7578 0 59.2959 0C75.531 0 82 11.3821 82 24.3075C82 40.8984 71.3454 59.8686 60.7545 59.8686C57.3934 59.8686 55.7446 58.0037 55.7446 55.0456C55.7446 54.274 55.8714 53.438 56.125 52.5377C52.5102 58.7754 45.5342 64.5629 39.0021 64.5629C34.2458 64.5629 31.8359 61.5406 31.8359 57.2964C31.8359 55.753 32.153 54.1454 32.7238 52.5377ZM57.3067 23.8591C57.3067 27.6255 55.1077 29.5087 52.6477 29.5087C50.1504 29.5087 47.9887 27.6255 47.9887 23.8591C47.9887 20.0928 50.1504 18.2096 52.6477 18.2096C55.1077 18.2096 57.3067 20.0928 57.3067 23.8591ZM71.2827 23.8593C71.2827 27.6257 69.0835 29.5089 66.6236 29.5089C64.1263 29.5089 61.9645 27.6257 61.9645 23.8593C61.9645 20.0931 64.1263 18.2099 66.6236 18.2099C69.0835 18.2099 71.2827 20.0931 71.2827 23.8593Z" fill="#8E4FFE"/>
</svg>
