<svg width="116" height="34" viewBox="0 0 116 34" fill="none" xmlns="http://www.w3.org/2000/svg">
<rect width="115.223" height="33.4517" rx="4" fill="url(#paint0_radial_988_106)"/>
<rect x="0.5" y="0.5" width="114.223" height="32.4517" rx="3.5" stroke="url(#paint1_linear_988_106)" stroke-opacity="0.3"/>
<path d="M23.1797 18.3818H20.5283V16.397H23.1797C23.541 16.397 23.834 16.3359 24.0586 16.2139C24.2832 16.0918 24.4468 15.9233 24.5493 15.7085C24.6567 15.4888 24.7104 15.2422 24.7104 14.9688C24.7104 14.6758 24.6567 14.4048 24.5493 14.1558C24.4468 13.9067 24.2832 13.7065 24.0586 13.5552C23.834 13.3989 23.541 13.3208 23.1797 13.3208H21.4951V22H18.9243V11.3359H23.1797C24.0342 11.3359 24.769 11.4922 25.3843 11.8047C26.0044 12.1172 26.4805 12.5469 26.8125 13.0938C27.1445 13.6357 27.3105 14.2559 27.3105 14.9541C27.3105 15.6426 27.1445 16.2432 26.8125 16.7559C26.4805 17.2686 26.0044 17.6689 25.3843 17.957C24.769 18.2402 24.0342 18.3818 23.1797 18.3818ZM36.3407 20.0225V22H30.9501V20.0225H36.3407ZM31.8656 11.3359V22H29.2948V11.3359H31.8656ZM42.6902 13.5771L40.0901 22H37.3289L41.2474 11.3359H42.9979L42.6902 13.5771ZM44.8436 22L42.2361 13.5771L41.8992 11.3359H43.6717L47.6121 22H44.8436ZM44.741 18.0229V20.0078H39.2698V18.0229H44.741ZM49.8308 11.3359L51.7937 15.9648L53.7639 11.3359H56.5324L53.1047 18.1694V22H50.4899V18.1694L47.0549 11.3359H49.8308ZM71.1577 11.3359V22H68.5942L64.8223 15.3643V22H62.2515V11.3359H64.8223L68.5942 17.9717V11.3359H71.1577ZM82.4071 16.4556V16.8877C82.4071 17.7031 82.2924 18.4355 82.0629 19.085C81.8383 19.7295 81.5185 20.2812 81.1034 20.7402C80.6884 21.1943 80.1977 21.5435 79.6312 21.7876C79.0648 22.0269 78.4398 22.1465 77.7562 22.1465C77.0678 22.1465 76.4379 22.0269 75.8666 21.7876C75.3002 21.5435 74.807 21.1943 74.3871 20.7402C73.9721 20.2812 73.6498 19.7295 73.4203 19.085C73.1957 18.4355 73.0834 17.7031 73.0834 16.8877V16.4556C73.0834 15.6401 73.1957 14.9077 73.4203 14.2583C73.6498 13.6089 73.9696 13.0571 74.3798 12.603C74.7948 12.144 75.2855 11.7949 75.852 11.5557C76.4232 11.3115 77.0531 11.1895 77.7416 11.1895C78.4252 11.1895 79.0502 11.3115 79.6166 11.5557C80.1879 11.7949 80.6811 12.144 81.0961 12.603C81.5111 13.0571 81.8334 13.6089 82.0629 14.2583C82.2924 14.9077 82.4071 15.6401 82.4071 16.4556ZM79.7997 16.8877V16.4409C79.7997 15.9136 79.7533 15.4497 79.6605 15.0493C79.5727 14.644 79.4408 14.3047 79.265 14.0312C79.0893 13.7578 78.872 13.5527 78.6132 13.416C78.3593 13.2744 78.0687 13.2036 77.7416 13.2036C77.3998 13.2036 77.102 13.2744 76.848 13.416C76.5941 13.5527 76.3817 13.7578 76.2108 14.0312C76.0399 14.3047 75.9105 14.644 75.8227 15.0493C75.7396 15.4497 75.6981 15.9136 75.6981 16.4409V16.8877C75.6981 17.4102 75.7396 17.874 75.8227 18.2793C75.9105 18.6797 76.0399 19.019 76.2108 19.2974C76.3866 19.5757 76.6015 19.7856 76.8554 19.9272C77.1142 20.0688 77.4145 20.1396 77.7562 20.1396C78.0834 20.1396 78.3739 20.0688 78.6278 19.9272C78.8817 19.7856 79.0941 19.5757 79.265 19.2974C79.4408 19.019 79.5727 18.6797 79.6605 18.2793C79.7533 17.874 79.7997 17.4102 79.7997 16.8877ZM86.8011 21.0332L88.9251 11.3359H90.1922L90.8807 12.1636L88.6175 22H87.2186L86.8011 21.0332ZM86.2371 11.3359L88.0315 21.1064L87.5701 22H85.9515L83.6883 11.3359H86.2371ZM92.0452 21.0552L93.825 11.3359H96.3665L94.1033 22H92.492L92.0452 21.0552ZM91.1077 11.3359L93.283 21.0918L92.8436 22H91.4446L89.1302 12.1489L89.8479 11.3359H91.1077Z" fill="white"/>
<defs>
<radialGradient id="paint0_radial_988_106" cx="0" cy="0" r="1" gradientUnits="userSpaceOnUse" gradientTransform="translate(57.6113 -10.7909) rotate(90) scale(47.1202 65.7585)">
<stop stop-color="#D787FF"/>
<stop offset="1" stop-color="#6741FF"/>
</radialGradient>
<linearGradient id="paint1_linear_988_106" x1="57.6113" y1="0" x2="57.6113" y2="33.4517" gradientUnits="userSpaceOnUse">
<stop stop-color="white"/>
<stop offset="1" stop-color="white" stop-opacity="0"/>
</linearGradient>
</defs>
</svg>
