<svg width="90" height="100" viewBox="0 0 90 100" fill="none" xmlns="http://www.w3.org/2000/svg">
<path d="M14.934 64.4114C19.0153 45.34 37.2011 24.9843 55.5531 18.9457C60.077 17.4571 64.1886 16.9775 67.7553 17.3855L65.9654 13.4476L69.3239 15.3964C72.356 17.1559 75.113 19.3513 77.5065 21.9122C77.5467 21.9552 77.5839 22.0003 77.6179 22.0472C81.752 26.4049 83.323 33.5227 81.3925 42.5436C77.3112 61.615 59.1254 81.9707 40.7733 88.0094C33.3877 90.4396 27.1007 90.1806 22.4902 87.7603L22.2611 87.6497C18.1434 85.6629 14.4693 82.8653 11.4592 79.4247L11.1597 79.0825L16.1327 81.195C14.0127 76.9254 13.4793 71.2087 14.934 64.4114Z" fill="url(#paint0_linear_988_89)"/>
<path d="M8.28385 58.868C12.3086 40.0547 30.2396 19.9827 48.3265 14.0294C66.4133 8.07606 77.8222 18.4907 73.7974 37.3041C69.7727 56.1174 51.8417 76.1893 33.7548 82.1427C15.668 88.096 4.25907 77.6813 8.28385 58.868Z" fill="url(#paint1_linear_988_89)" stroke="url(#paint2_linear_988_89)"/>
<path d="M12.4011 57.4939C15.879 41.2373 31.3727 23.8942 47.0002 18.7504C62.6276 13.6066 72.4861 22.605 69.0083 38.8616C65.5304 55.1182 50.0367 72.4613 34.4092 77.6051C18.7818 82.7489 8.92332 73.7506 12.4011 57.4939Z" stroke="url(#paint3_linear_988_89)"/>
<path d="M26.4803 58.8531L56.9756 48.9784L47.5759 59.3732L17.0805 69.2479L26.4803 58.8531ZM31.7256 34.2652L62.2209 24.3905L52.8221 34.7814L22.3267 44.6561M51.8831 39.1827L21.3878 49.0574L27.4183 54.4557L57.9137 44.581" fill="url(#paint4_linear_988_89)"/>
<defs>
<linearGradient id="paint0_linear_988_89" x1="68.6622" y1="17.935" x2="15.0089" y2="87.238" gradientUnits="userSpaceOnUse">
<stop stop-color="#0E0E0E"/>
<stop offset="0.505208" stop-color="#8C8C8C"/>
<stop offset="1" stop-color="#1F2020"/>
</linearGradient>
<linearGradient id="paint1_linear_988_89" x1="11.8502" y1="81.8254" x2="24.4555" y2="3.67852" gradientUnits="userSpaceOnUse">
<stop stop-color="#4D4F4E"/>
<stop offset="1" stop-color="#1D1F1E"/>
</linearGradient>
<linearGradient id="paint2_linear_988_89" x1="33.6502" y1="82.6316" x2="14.5766" y2="24.6837" gradientUnits="userSpaceOnUse">
<stop stop-color="#9F9F9F"/>
<stop offset="1" stop-color="#292929"/>
</linearGradient>
<linearGradient id="paint3_linear_988_89" x1="34.3771" y1="77.5526" x2="16.24" y2="29.9148" gradientUnits="userSpaceOnUse">
<stop stop-color="#292929"/>
<stop offset="1" stop-color="#424242"/>
</linearGradient>
<linearGradient id="paint4_linear_988_89" x1="17.3829" y1="69.3129" x2="29.0923" y2="16.9469" gradientUnits="userSpaceOnUse">
<stop stop-color="#E652EE"/>
<stop offset="1" stop-color="#33EFD7"/>
</linearGradient>
</defs>
</svg>
