<svg width="243" height="69" viewBox="0 0 243 69" fill="none" xmlns="http://www.w3.org/2000/svg">
<path d="M156.708 62H150.122L149.345 57.819C149.296 57.967 149.111 58.2507 148.79 58.67C148.494 59.0893 148.149 59.5333 147.754 60.002C147.384 60.4707 147.014 60.9023 146.644 61.297C146.274 61.6917 146.003 61.926 145.83 62H130.179C130.204 61.8767 130.216 61.7903 130.216 61.741C130.241 61.6917 130.253 61.6917 130.253 61.741V61.63L143.573 44.61C143.647 44.462 143.795 44.2647 144.017 44.018C144.239 43.7713 144.473 43.537 144.72 43.315C144.991 43.0683 145.25 42.8587 145.497 42.686C145.768 42.4887 145.99 42.39 146.163 42.39H152.379C152.626 42.39 152.848 42.5257 153.045 42.797C153.267 43.0683 153.452 43.4013 153.6 43.796C153.748 44.1907 153.871 44.61 153.97 45.054C154.093 45.4733 154.192 45.831 154.266 46.127L156.708 62ZM141.834 56.672V57.042H149.345L148.05 48.347L141.834 56.672ZM193.937 53.083C192.925 54.6863 191.877 56.0553 190.792 57.19C189.731 58.3 188.572 59.2127 187.314 59.928C186.056 60.6433 184.662 61.1737 183.133 61.519C181.603 61.8397 179.877 62 177.953 62H168.74L175.881 42.39H191.976C193.456 42.39 194.529 42.797 195.195 43.611C195.861 44.425 196.194 45.461 196.194 46.719C196.194 47.681 196.009 48.7293 195.639 49.864C195.269 50.974 194.701 52.047 193.937 53.083ZM181.246 47.385L177.731 57.005H178.693C179.285 57.005 179.975 56.8817 180.765 56.635C181.554 56.3637 182.343 56.0183 183.133 55.599C183.922 55.1797 184.65 54.711 185.316 54.193C185.982 53.6503 186.487 53.1077 186.833 52.565C186.981 52.343 187.153 52.084 187.351 51.788C187.548 51.4673 187.721 51.1467 187.869 50.826C188.041 50.4807 188.189 50.1477 188.313 49.827C188.436 49.4817 188.498 49.161 188.498 48.865C188.498 48.4457 188.399 48.1003 188.202 47.829C188.029 47.533 187.708 47.385 187.24 47.385H181.246ZM216.941 62H210.355L209.578 57.819C209.529 57.967 209.344 58.2507 209.023 58.67C208.727 59.0893 208.382 59.5333 207.987 60.002C207.617 60.4707 207.247 60.9023 206.877 61.297C206.507 61.6917 206.236 61.926 206.063 62H190.412C190.437 61.8767 190.449 61.7903 190.449 61.741C190.474 61.6917 190.486 61.6917 190.486 61.741V61.63L203.806 44.61C203.88 44.462 204.028 44.2647 204.25 44.018C204.472 43.7713 204.707 43.537 204.953 43.315C205.225 43.0683 205.484 42.8587 205.73 42.686C206.002 42.4887 206.224 42.39 206.396 42.39H212.612C212.859 42.39 213.081 42.5257 213.278 42.797C213.5 43.0683 213.685 43.4013 213.833 43.796C213.981 44.1907 214.105 44.61 214.203 45.054C214.327 45.4733 214.425 45.831 214.499 46.127L216.941 62ZM202.067 56.672V57.042H209.578L208.283 48.347L202.067 56.672ZM219.864 62L223.268 52.676L219.087 42.39H227.005L228.855 47.015L234.109 42.39H242.027L230.372 52.676L226.968 62H219.864Z" fill="#DDE9F9"/>
<path d="M115.359 19.448L118.835 9.68H127.151C126.125 12.672 125.333 15.004 124.775 16.676C124.218 18.3187 123.807 19.5507 123.543 20.372C123.279 21.1933 123.118 21.7213 123.059 21.956C123.001 22.1613 122.971 22.308 122.971 22.396C122.913 22.7187 122.854 22.9973 122.795 23.232C122.766 23.4667 122.751 23.6573 122.751 23.804C122.751 24.8307 123.001 25.6373 123.499 26.224C123.998 26.7813 124.658 27.06 125.479 27.06H127.635C128.339 27.06 128.985 26.9133 129.571 26.62C130.187 26.3267 130.73 25.96 131.199 25.52C131.669 25.08 132.079 24.6107 132.431 24.112C132.783 23.6133 133.062 23.1587 133.267 22.748L138.019 9.68H146.379L142.419 20.548C141.686 22.572 140.938 24.3613 140.175 25.916C139.413 27.4413 138.547 28.732 137.579 29.788C136.611 30.844 135.497 31.6507 134.235 32.208C132.974 32.736 131.463 33 129.703 33H124.555C122.502 33 120.786 32.8827 119.407 32.648C118.058 32.4133 116.973 32.0467 116.151 31.548C115.33 31.02 114.743 30.3453 114.391 29.524C114.039 28.7027 113.863 27.7053 113.863 26.532C113.863 26.2093 113.878 25.872 113.907 25.52C113.966 25.168 114.025 24.7867 114.083 24.376C114.23 23.6133 114.406 22.8507 114.611 22.088C114.846 21.3253 115.095 20.4453 115.359 19.448ZM140.336 33L148.828 9.68H169.024C169.845 9.68 170.534 9.91467 171.092 10.384C171.649 10.824 172.104 11.3813 172.456 12.056C172.808 12.7013 173.057 13.4053 173.204 14.168C173.38 14.9013 173.468 15.5613 173.468 16.148C173.468 17.38 173.174 18.5093 172.588 19.536C172.001 20.5627 171.253 21.4573 170.344 22.22C169.434 22.9533 168.437 23.5253 167.352 23.936C166.266 24.3467 165.225 24.552 164.228 24.552H151.864L148.784 33H140.336ZM155.076 15.664L152.656 22.352L156.88 18.612H163.92C163.949 18.612 164.008 18.5533 164.096 18.436C164.213 18.2893 164.33 18.1427 164.448 17.996C164.594 17.82 164.712 17.6587 164.8 17.512C164.917 17.336 164.99 17.204 165.02 17.116L165.064 16.852C165.064 16.588 165.005 16.324 164.888 16.06C164.8 15.796 164.536 15.664 164.096 15.664H155.076ZM190.412 33L196.748 15.62H188.432V15.576C188.461 15.4587 188.667 15.136 189.048 14.608C189.459 14.08 189.928 13.4933 190.456 12.848C191.013 12.2027 191.571 11.5867 192.128 11C192.715 10.384 193.213 9.944 193.624 9.68H215.668C215.463 10.0907 215.111 10.6333 214.612 11.308C214.143 11.9533 213.629 12.5987 213.072 13.244C212.544 13.8893 212.016 14.4467 211.488 14.916C210.989 15.3853 210.623 15.62 210.388 15.62H205.196L198.86 33H190.412ZM241.994 20.372C241.73 22.0147 241.158 23.5987 240.278 25.124C239.398 26.6493 238.312 27.9987 237.022 29.172C235.731 30.316 234.264 31.24 232.622 31.944C231.008 32.648 229.322 33 227.562 33H222.414C220.8 33 219.304 32.868 217.926 32.604C216.547 32.34 215.359 31.9 214.362 31.284C213.364 30.6387 212.572 29.7733 211.986 28.688C211.428 27.6027 211.15 26.2387 211.15 24.596C211.15 24.244 211.164 23.8773 211.194 23.496C211.223 23.1147 211.267 22.7187 211.326 22.308C211.531 20.724 212.059 19.184 212.91 17.688C213.76 16.1627 214.816 14.8133 216.078 13.64C217.339 12.4373 218.732 11.484 220.258 10.78C221.783 10.0467 223.323 9.68 224.878 9.68H231.434C233.106 9.68 234.602 9.84133 235.922 10.164C237.242 10.4573 238.371 10.9267 239.31 11.572C240.248 12.2173 240.967 13.068 241.466 14.124C241.964 15.1507 242.214 16.3827 242.214 17.82C242.214 18.2307 242.199 18.6413 242.17 19.052C242.14 19.4627 242.082 19.9027 241.994 20.372ZM219.598 21.692C219.48 22.3667 219.51 23.0267 219.686 23.672C219.862 24.3173 220.14 24.8893 220.522 25.388C220.903 25.8867 221.343 26.2973 221.842 26.62C222.37 26.9133 222.898 27.06 223.426 27.06H227.078C227.752 27.06 228.471 26.8107 229.234 26.312C230.026 25.8133 230.744 25.1973 231.39 24.464C232.064 23.7013 232.622 22.88 233.062 22C233.502 21.12 233.722 20.284 233.722 19.492C233.722 19.0227 233.678 18.5533 233.59 18.084C233.502 17.6147 233.326 17.204 233.062 16.852C232.798 16.4707 232.431 16.1773 231.962 15.972C231.522 15.7373 230.935 15.62 230.202 15.62H225.89C225.274 15.62 224.614 15.8107 223.91 16.192C223.235 16.5733 222.59 17.0573 221.974 17.644C221.358 18.2307 220.83 18.8907 220.39 19.624C219.95 20.328 219.686 21.0173 219.598 21.692Z" fill="#DDE9F9"/>
<path d="M11.2434 62H4.13939L9.4674 47.385H6.43339V47.348C6.45806 47.2493 6.63073 46.978 6.95139 46.534C7.29673 46.09 7.69139 45.5967 8.1354 45.054C8.60406 44.5113 9.07273 43.9933 9.5414 43.5C10.0347 42.982 10.4541 42.612 10.7994 42.39H18.3844L11.2434 62ZM41.7756 51.381C41.603 52.565 41.1466 53.786 40.4066 55.044C39.6666 56.302 38.7416 57.449 37.6316 58.485C36.5463 59.521 35.313 60.372 33.9316 61.038C32.5503 61.6793 31.1196 62 29.6396 62H25.9396C24.583 62 23.325 61.889 22.1656 61.667C21.0063 61.445 20.0073 61.075 19.1686 60.557C18.33 60.0143 17.664 59.2867 17.1706 58.374C16.702 57.4613 16.4676 56.3143 16.4676 54.933C16.4676 54.637 16.48 54.3287 16.5046 54.008C16.5293 53.6873 16.5663 53.3543 16.6156 53.009C16.7883 51.825 17.2323 50.604 17.9476 49.346C18.663 48.088 19.551 46.941 20.6116 45.905C21.6723 44.869 22.844 44.0303 24.1266 43.389C25.4093 42.723 26.7043 42.39 28.0116 42.39H32.8956C34.2276 42.39 35.4486 42.5257 36.5586 42.797C37.6686 43.0437 38.6183 43.4507 39.4076 44.018C40.2216 44.5607 40.8506 45.276 41.2946 46.164C41.7386 47.052 41.9606 48.1127 41.9606 49.346C41.9606 49.6667 41.936 49.9997 41.8866 50.345C41.862 50.6657 41.825 51.011 41.7756 51.381ZM23.5716 52.491C23.547 52.5157 23.5346 52.602 23.5346 52.75V52.972C23.5346 53.416 23.621 53.8847 23.7936 54.378C23.9663 54.8467 24.2006 55.2783 24.4966 55.673C24.7926 56.0677 25.138 56.3883 25.5326 56.635C25.9273 56.8817 26.3466 57.005 26.7906 57.005H29.2326C29.5286 57.005 29.8986 56.9063 30.3426 56.709C30.8113 56.487 31.28 56.2033 31.7486 55.858C32.242 55.5127 32.6983 55.1303 33.1176 54.711C33.5616 54.267 33.8946 53.8353 34.1166 53.416C34.3386 53.0707 34.4743 52.7993 34.5236 52.602L34.6716 52.232C34.7703 51.7387 34.8196 51.2083 34.8196 50.641C34.8196 50.2463 34.7826 49.8517 34.7086 49.457C34.6346 49.0623 34.4866 48.717 34.2646 48.421C34.0426 48.1003 33.7343 47.8537 33.3396 47.681C32.9696 47.4837 32.4763 47.385 31.8596 47.385H28.8626C28.468 47.385 28.0363 47.496 27.5676 47.718C27.1236 47.9153 26.6796 48.1867 26.2356 48.532C25.7916 48.8773 25.3723 49.272 24.9776 49.716C24.6076 50.1353 24.3116 50.5547 24.0896 50.974C23.9663 51.27 23.8553 51.5537 23.7566 51.825C23.658 52.0717 23.5963 52.2937 23.5716 52.491ZM68.0086 55.747V55.525C68.0086 55.3277 67.9346 55.1303 67.7866 54.933C67.6386 54.7357 67.466 54.637 67.2686 54.637H59.9796C59.2396 54.637 58.5736 54.4643 57.9816 54.119C57.3896 53.749 56.8716 53.2927 56.4276 52.75C56.0083 52.1827 55.6876 51.566 55.4656 50.9C55.2436 50.234 55.1326 49.5803 55.1326 48.939C55.1326 48.347 55.3053 47.681 55.6506 46.941C55.996 46.1763 56.44 45.461 56.9826 44.795C57.5253 44.1043 58.142 43.537 58.8326 43.093C59.5233 42.6243 60.214 42.39 60.9046 42.39H79.7746C79.2073 43.2287 78.5536 44.0673 77.8136 44.906C77.0983 45.7447 76.2966 46.5833 75.4086 47.422H63.2726C63.0013 47.422 62.7546 47.5947 62.5326 47.94C62.3106 48.2607 62.1996 48.6307 62.1996 49.05C62.1996 49.0747 62.249 49.1363 62.3476 49.235C62.4463 49.309 62.5203 49.3707 62.5696 49.42C62.6683 49.5187 62.804 49.6173 62.9766 49.716C63.174 49.79 63.285 49.827 63.3096 49.827H70.3396C71.1536 49.827 71.8443 50.0243 72.4116 50.419C72.979 50.789 73.4353 51.27 73.7806 51.862C74.1506 52.4293 74.4096 53.046 74.5576 53.712C74.7303 54.378 74.8166 54.9947 74.8166 55.562V55.784C74.8166 56.4253 74.6686 57.116 74.3726 57.856C74.0766 58.5713 73.682 59.2373 73.1886 59.854C72.72 60.4707 72.165 60.9887 71.5236 61.408C70.907 61.8027 70.2656 62 69.5996 62H50.7296C50.853 61.7533 51.0996 61.3587 51.4696 60.816C51.8643 60.2733 52.2713 59.7307 52.6906 59.188C53.1346 58.6207 53.5416 58.1273 53.9116 57.708C54.2816 57.264 54.5036 57.042 54.5776 57.042H66.8616C67.2316 57.042 67.5153 56.9187 67.7126 56.672C67.91 56.4007 68.0086 56.0923 68.0086 55.747ZM102.493 51.381C102.271 52.7623 101.79 54.0943 101.05 55.377C100.31 56.6597 99.3978 57.7943 98.3125 58.781C97.2272 59.743 95.9938 60.52 94.6125 61.112C93.2558 61.704 91.8375 62 90.3575 62H86.0285C84.6718 62 83.4138 61.889 82.2545 61.667C81.0952 61.445 80.0962 61.075 79.2575 60.557C78.4188 60.0143 77.7528 59.2867 77.2595 58.374C76.7908 57.4613 76.5565 56.3143 76.5565 54.933C76.5565 54.637 76.5688 54.3287 76.5935 54.008C76.6182 53.6873 76.6552 53.3543 76.7045 53.009C76.8772 51.677 77.3212 50.382 78.0365 49.124C78.7518 47.8413 79.6398 46.7067 80.7005 45.72C81.7612 44.7087 82.9328 43.907 84.2155 43.315C85.4982 42.6983 86.7932 42.39 88.1005 42.39H93.6135C95.0195 42.39 96.2775 42.5257 97.3875 42.797C98.4975 43.0437 99.4472 43.4383 100.236 43.981C101.026 44.5237 101.63 45.239 102.049 46.127C102.469 46.9903 102.678 48.0263 102.678 49.235C102.678 49.5803 102.666 49.9257 102.641 50.271C102.617 50.6163 102.567 50.9863 102.493 51.381ZM83.6605 52.491C83.5618 53.0583 83.5865 53.6133 83.7345 54.156C83.8825 54.6987 84.1168 55.1797 84.4375 55.599C84.7582 56.0183 85.1282 56.3637 85.5475 56.635C85.9915 56.8817 86.4355 57.005 86.8795 57.005H89.9505C90.5178 57.005 91.1222 56.7953 91.7635 56.376C92.4295 55.9567 93.0338 55.4387 93.5765 54.822C94.1438 54.1807 94.6125 53.49 94.9825 52.75C95.3525 52.01 95.5375 51.307 95.5375 50.641C95.5375 50.2463 95.5005 49.8517 95.4265 49.457C95.3525 49.0623 95.2045 48.717 94.9825 48.421C94.7605 48.1003 94.4522 47.8537 94.0575 47.681C93.6875 47.4837 93.1942 47.385 92.5775 47.385H88.9515C88.4335 47.385 87.8785 47.5453 87.2865 47.866C86.7192 48.1867 86.1765 48.5937 85.6585 49.087C85.1405 49.5803 84.6965 50.1353 84.3265 50.752C83.9565 51.344 83.7345 51.9237 83.6605 52.491ZM100.078 62L107.219 42.39H114.286L108.958 57.005H120.687C120.711 57.005 120.563 57.2147 120.243 57.634C119.947 58.0533 119.564 58.5467 119.096 59.114C118.627 59.6567 118.134 60.2117 117.616 60.779C117.098 61.3217 116.666 61.7287 116.321 62H100.078Z" fill="url(#paint0_radial_988_83)"/>
<path d="M33.9113 20.416L40.6873 9.68H48.4313L35.1433 30.228C35.026 30.404 34.85 30.6533 34.6153 30.976C34.4099 31.2693 34.1753 31.5773 33.9113 31.9C33.6766 32.1933 33.4273 32.4573 33.1633 32.692C32.9286 32.8973 32.7379 33 32.5913 33H27.3993C27.1646 33 26.974 32.8093 26.8273 32.428C26.71 32.0173 26.5926 31.4013 26.4753 30.58C26.3579 29.7587 26.2259 28.7027 26.0793 27.412C25.9619 26.1213 25.8006 24.5813 25.5953 22.792L20.4033 30.228C20.2566 30.404 20.0806 30.6533 19.8753 30.976C19.6699 31.2693 19.4499 31.5773 19.2153 31.9C18.9806 32.1933 18.7459 32.4573 18.5113 32.692C18.2766 32.8973 18.0713 33 17.8953 33H12.6593C12.4539 33 12.2779 32.868 12.1313 32.604C12.0139 32.3107 11.9113 31.9733 11.8233 31.592C11.7646 31.1813 11.7206 30.7413 11.6913 30.272C11.6619 29.8027 11.6473 29.3773 11.6473 28.996V9.68H18.9073V21.208L26.3873 9.68H33.1633L33.9113 20.416ZM41.7464 33V32.956C41.7757 32.8387 41.981 32.516 42.3624 31.988C42.773 31.46 43.2424 30.8733 43.7704 30.228C44.3277 29.5827 44.885 28.9667 45.4424 28.38C46.029 27.764 46.5277 27.324 46.9384 27.06H52.2184L56.3984 15.62H48.0824V15.576C48.1117 15.4587 48.317 15.136 48.6984 14.608C49.109 14.08 49.5784 13.4933 50.1064 12.848C50.6637 12.2027 51.221 11.5867 51.7784 11C52.365 10.384 52.8637 9.944 53.2744 9.68H75.3184C75.113 10.0907 74.761 10.6333 74.2624 11.308C73.793 11.9533 73.2797 12.5987 72.7224 13.244C72.1944 13.8893 71.6664 14.4467 71.1384 14.916C70.6397 15.3853 70.273 15.62 70.0384 15.62H64.8464L60.6664 27.06H68.9824C68.777 27.4707 68.425 28.0133 67.9264 28.688C67.457 29.3333 66.9437 29.9787 66.3864 30.624C65.8584 31.2693 65.3304 31.8267 64.8024 32.296C64.3037 32.7653 63.937 33 63.7024 33H41.7464ZM69.0797 33L77.5717 9.68H88.2197L90.7277 22.792L95.5237 9.68H103.884L95.3917 33H84.7437L82.2797 19.888L77.5277 33H69.0797Z" fill="url(#paint1_radial_988_83)"/>
<defs>
<radialGradient id="paint0_radial_988_83" cx="0" cy="0" r="1" gradientUnits="userSpaceOnUse" gradientTransform="translate(67.0213 34) rotate(90) scale(39.375 67.0213)">
<stop stop-color="#D787FF"/>
<stop offset="1" stop-color="#6741FF"/>
</radialGradient>
<radialGradient id="paint1_radial_988_83" cx="0" cy="0" r="1" gradientUnits="userSpaceOnUse" gradientTransform="translate(55.0585 2.74926e-06) rotate(90) scale(46.125 53.0585)">
<stop stop-color="#D787FF"/>
<stop offset="1" stop-color="#6741FF"/>
</radialGradient>
</defs>
</svg>
